<svg width="2124" height="1037" viewBox="0 0 2124 1037" fill="none" xmlns="http://www.w3.org/2000/svg">
<rect width="2124" height="1037" stroke="#666D72"/>
<path d="M801.837 506.362C813.456 515.389 823.366 525.167 831.908 536.825C847.969 559.391 856.171 584.965 857.538 613.173C858.905 641.004 856.171 667.706 845.578 693.281C834.643 720.359 816.873 740.669 793.977 755.712C770.057 771.509 743.744 779.782 716.064 784.672C693.852 788.433 671.639 789.562 649.085 789.562C596.802 789.562 544.86 789.937 492.576 789.562C465.579 789.185 438.584 788.809 411.587 788.809C407.486 788.809 405.778 787.68 405.778 782.792C406.119 760.978 405.778 738.789 405.778 716.975C405.778 710.581 405.778 710.581 411.587 710.581C430.382 710.581 449.177 710.581 467.972 710.581C474.806 710.581 474.806 710.581 474.806 703.436C474.806 696.666 474.806 690.272 474.806 683.502C474.806 676.733 474.806 676.356 468.655 676.356C450.544 676.356 432.433 676.356 414.662 676.356C404.411 676.356 405.436 677.109 405.436 666.202C405.436 645.893 405.436 625.96 405.436 605.651C405.436 597.753 405.436 597.753 412.27 597.753C430.723 597.753 449.519 597.753 467.972 597.753C474.806 597.753 474.806 597.753 474.806 590.607C474.806 582.708 474.465 574.811 474.806 567.289C475.148 562.4 473.098 561.272 468.997 561.272C450.544 561.272 432.433 561.272 413.979 561.272C404.411 561.272 405.094 562.024 405.094 551.869C405.094 531.184 405.094 510.499 405.094 489.814C405.094 483.044 405.094 483.044 411.587 483.044C430.382 483.044 449.177 483.044 467.972 483.044C474.465 483.044 474.464 483.044 474.464 475.522C474.464 468.752 474.464 461.606 474.464 454.837C474.464 446.563 474.465 446.186 466.947 446.186C449.519 446.186 432.091 446.186 414.662 446.186C412.954 446.186 411.245 446.186 409.879 446.186C406.461 446.563 405.094 444.682 405.094 440.921C405.094 431.143 405.094 420.988 405.094 411.209C405.094 399.551 405.094 387.892 405.094 375.857C405.094 366.455 404.753 367.583 413.295 367.207C431.407 367.207 449.519 367.207 467.289 367.207C474.806 367.207 474.464 367.958 474.464 359.685C474.464 354.043 474.464 348.402 474.464 342.384C474.464 335.991 474.123 335.991 468.313 335.991C450.886 335.991 433.458 335.991 416.03 335.991C401.677 335.991 404.07 337.495 403.728 322.827C403.728 304.023 403.728 284.842 403.728 266.037C403.728 257.763 403.728 257.387 411.245 257.387C428.332 257.387 445.076 257.387 462.163 257.387C527.773 257.387 593.385 257.011 658.654 257.763C692.827 258.139 726.657 264.157 758.438 279.2C783.042 290.859 803.887 307.784 818.24 332.982C832.934 358.933 837.034 387.891 835.326 417.603C833.959 443.554 827.467 468.001 813.456 489.437C811.064 494.703 806.621 499.969 801.837 506.362Z" fill="#666D72"/>
<path d="M192.2 636.491C192.2 625.208 192.2 613.549 192.2 602.266C192.2 598.506 193.225 597.001 196.984 597.001C217.829 597.001 238.332 597.001 259.177 597.001C262.595 597.001 263.961 598.506 263.961 602.266C263.961 624.833 263.961 647.398 263.961 669.964C263.961 674.101 262.936 675.981 258.835 675.981C238.332 675.981 217.828 675.981 197.326 675.981C193.225 675.981 192.2 674.101 192.2 669.964C192.2 659.057 192.2 647.774 192.2 636.491Z" fill="#666D72"/>
<path d="M370.239 522.535C370.239 533.817 370.239 544.724 370.239 556.007C370.239 560.52 368.872 562.4 364.771 562.4C344.609 562.4 324.448 562.4 304.285 562.4C299.843 562.4 298.818 560.52 298.818 556.007C298.818 533.817 298.818 511.628 298.818 489.438C298.818 485.302 299.843 483.797 303.944 483.797C324.448 483.797 344.951 483.797 365.455 483.797C369.556 483.797 370.581 485.302 370.581 489.438C369.897 500.345 370.239 511.252 370.239 522.535Z" fill="#666D72"/>
<path d="M298.476 636.867C298.476 625.584 298.476 614.678 298.476 603.395C298.476 598.881 299.501 597.001 303.944 597.001C324.106 597.378 344.267 597.001 364.429 597.001C368.53 597.001 370.239 598.129 370.239 603.019C369.897 625.208 369.897 647.398 370.239 669.587C370.239 674.477 368.53 675.605 364.429 675.605C344.609 675.605 324.448 675.605 304.627 675.605C298.818 675.605 298.818 675.229 298.476 669.211C298.476 658.304 298.476 647.774 298.476 636.867Z" fill="#666D72"/>
<path d="M282.073 405.569C282.073 416.851 282.073 427.758 282.073 439.041C282.073 443.554 281.048 445.434 276.605 445.434C256.785 445.059 236.623 445.434 216.804 445.434C212.703 445.434 210.994 444.306 210.994 439.417C211.336 416.851 210.994 394.286 210.994 371.72C210.994 367.959 212.019 366.455 215.779 366.455C236.281 366.455 256.785 366.455 277.289 366.455C281.389 366.455 282.414 368.335 282.414 372.096C282.073 383.003 282.073 394.286 282.073 405.569Z" fill="#666D72"/>
<path d="M263.62 749.32C263.62 760.602 263.62 771.509 263.62 782.792C263.62 786.929 262.595 788.81 258.494 788.433C237.991 788.433 217.487 788.433 196.984 788.433C193.225 788.433 191.858 787.305 191.858 782.792C191.858 760.602 192.2 738.412 191.858 716.223C191.858 711.334 193.908 710.205 197.668 710.205C217.487 710.205 237.649 710.205 257.469 710.205C263.278 710.205 263.278 710.582 263.278 716.975C263.62 727.506 263.62 738.412 263.62 749.32Z" fill="#666D72"/>
<path d="M333.674 788.433C323.764 788.433 313.854 788.433 304.285 788.433C299.843 788.433 298.818 786.928 298.818 782.415C299.159 760.602 299.159 738.412 298.818 716.599C298.818 712.086 300.185 710.205 304.285 710.205C324.448 710.205 344.609 710.205 364.771 710.205C368.188 710.205 370.239 710.957 370.239 715.471C370.239 738.037 370.239 760.602 370.239 783.168C370.239 786.928 369.214 788.433 365.455 788.433C354.861 788.433 344.267 788.433 333.674 788.433Z" fill="#666D72"/>
<path d="M174.103 710.205C184.355 710.205 194.265 710.205 204.517 710.205C208.276 710.205 209.643 711.334 209.643 715.847C209.643 738.412 209.643 760.978 209.643 783.543C209.643 787.681 208.276 788.81 204.859 788.433C184.355 788.433 163.852 788.433 143.348 788.433C139.931 788.433 138.564 787.305 138.564 783.543C138.564 760.978 138.564 738.412 138.564 715.847C138.564 711.334 139.931 710.205 143.69 710.205C153.941 710.205 164.193 710.205 174.103 710.205Z" fill="#666D72"/>
<path d="M623.115 617.311C623.115 604.899 623.115 592.113 623.115 579.701C623.115 576.316 623.798 574.06 627.558 574.06C642.935 574.811 658.654 572.555 674.032 575.564C690.093 578.949 702.737 587.223 706.837 606.028C711.621 628.969 703.762 650.407 681.208 657.552C676.424 659.057 671.639 660.561 666.855 660.561C654.211 660.561 641.226 660.561 628.583 660.937C624.823 660.937 623.115 659.809 623.457 655.296C623.457 642.509 623.115 629.721 623.115 617.311Z" fill="#666D72"/>
<path d="M623.115 421.365C623.115 411.211 623.115 401.056 623.115 390.901C623.115 387.516 623.457 384.884 627.558 384.884C641.91 385.259 656.604 383.756 670.614 387.893C692.143 393.911 702.054 418.356 691.802 440.17C689.067 446.187 684.284 450.324 678.816 452.957C671.981 456.342 664.805 457.47 657.287 457.847C647.719 458.222 638.15 457.847 628.583 458.222C624.14 458.222 623.115 456.342 623.115 451.829C623.456 441.674 623.115 431.519 623.115 421.365Z" fill="#666D72"/>
<path d="M1546.46 538.33C1554.31 560.144 1562.17 582.333 1570.03 604.899C1553.64 604.899 1537.91 604.899 1520.83 604.899C1529.02 582.333 1536.54 560.144 1544.4 538.33C1545.43 537.954 1545.77 538.33 1546.46 538.33Z" fill="#666D72"/>
<path d="M1574.82 742.926C1575.16 741.045 1574.13 738.037 1577.55 738.037C1580.63 738.037 1583.02 739.165 1583.02 743.302C1583.02 746.312 1580.63 748.568 1577.55 748.568C1575.16 748.192 1574.82 747.44 1574.82 742.926Z" fill="#666D72"/>
<g filter="url(#filter0_d_0_1)">
<text fill="#666D72" xml:space="preserve" style="white-space: pre" font-family="Inter" font-size="210" letter-spacing="0.22em"><tspan x="920.616" y="455.364">BAUZAR&#10;</tspan><tspan x="920.616" y="724.364">SMART</tspan></text>
<text stroke="#666D72" xml:space="preserve" style="white-space: pre" font-family="Inter" font-size="210" letter-spacing="0.22em"><tspan x="920.616" y="455.364">BAUZAR&#10;</tspan><tspan x="920.616" y="724.364">SMART</tspan></text>
</g>
<path d="M801.837 506.362C813.456 515.389 823.366 525.167 831.908 536.825C847.969 559.391 856.171 584.965 857.538 613.173C858.905 641.004 856.171 667.706 845.578 693.281C834.643 720.359 816.873 740.669 793.977 755.712C770.057 771.509 743.744 779.782 716.064 784.672C693.852 788.433 671.639 789.562 649.085 789.562C596.802 789.562 544.86 789.937 492.576 789.562C465.579 789.185 438.584 788.809 411.587 788.809C407.486 788.809 405.778 787.68 405.778 782.792C406.119 760.978 405.778 738.789 405.778 716.975C405.778 710.581 405.778 710.581 411.587 710.581C430.382 710.581 449.177 710.581 467.972 710.581C474.806 710.581 474.806 710.581 474.806 703.436C474.806 696.666 474.806 690.272 474.806 683.502C474.806 676.733 474.806 676.356 468.655 676.356C450.544 676.356 432.433 676.356 414.662 676.356C404.411 676.356 405.436 677.109 405.436 666.202C405.436 645.893 405.436 625.96 405.436 605.651C405.436 597.753 405.436 597.753 412.27 597.753C430.723 597.753 449.519 597.753 467.972 597.753C474.806 597.753 474.806 597.753 474.806 590.607C474.806 582.708 474.465 574.811 474.806 567.289C475.148 562.4 473.098 561.272 468.997 561.272C450.544 561.272 432.433 561.272 413.979 561.272C404.411 561.272 405.094 562.024 405.094 551.869C405.094 531.184 405.094 510.499 405.094 489.814C405.094 483.044 405.094 483.044 411.587 483.044C430.382 483.044 449.177 483.044 467.972 483.044C474.465 483.044 474.464 483.044 474.464 475.522C474.464 468.752 474.464 461.606 474.464 454.837C474.464 446.563 474.465 446.186 466.947 446.186C449.519 446.186 432.091 446.186 414.662 446.186C412.954 446.186 411.245 446.186 409.879 446.186C406.461 446.563 405.094 444.682 405.094 440.921C405.094 431.143 405.094 420.988 405.094 411.209C405.094 399.551 405.094 387.892 405.094 375.857C405.094 366.455 404.753 367.583 413.295 367.207C431.407 367.207 449.519 367.207 467.289 367.207C474.806 367.207 474.464 367.958 474.464 359.685C474.464 354.043 474.464 348.402 474.464 342.384C474.464 335.991 474.123 335.991 468.313 335.991C450.886 335.991 433.458 335.991 416.03 335.991C401.677 335.991 404.07 337.495 403.728 322.827C403.728 304.023 403.728 284.842 403.728 266.037C403.728 257.763 403.728 257.387 411.245 257.387C428.332 257.387 445.076 257.387 462.163 257.387C527.773 257.387 593.385 257.011 658.654 257.763C692.827 258.139 726.657 264.157 758.438 279.2C783.042 290.859 803.887 307.784 818.24 332.982C832.934 358.933 837.034 387.891 835.326 417.603C833.959 443.554 827.467 468.001 813.456 489.437C811.064 494.703 806.621 499.969 801.837 506.362Z" fill="#666D72"/>
<path d="M192.2 636.491C192.2 625.208 192.2 613.549 192.2 602.266C192.2 598.506 193.225 597.001 196.984 597.001C217.829 597.001 238.332 597.001 259.177 597.001C262.595 597.001 263.961 598.506 263.961 602.266C263.961 624.833 263.961 647.398 263.961 669.964C263.961 674.101 262.936 675.981 258.835 675.981C238.332 675.981 217.828 675.981 197.326 675.981C193.225 675.981 192.2 674.101 192.2 669.964C192.2 659.057 192.2 647.774 192.2 636.491Z" fill="#666D72"/>
<path d="M370.239 522.535C370.239 533.817 370.239 544.724 370.239 556.007C370.239 560.52 368.872 562.4 364.771 562.4C344.609 562.4 324.448 562.4 304.285 562.4C299.843 562.4 298.818 560.52 298.818 556.007C298.818 533.817 298.818 511.628 298.818 489.438C298.818 485.302 299.843 483.797 303.944 483.797C324.448 483.797 344.951 483.797 365.455 483.797C369.556 483.797 370.581 485.302 370.581 489.438C369.897 500.345 370.239 511.252 370.239 522.535Z" fill="#666D72"/>
<path d="M298.476 636.867C298.476 625.584 298.476 614.678 298.476 603.395C298.476 598.881 299.501 597.001 303.944 597.001C324.106 597.378 344.267 597.001 364.429 597.001C368.53 597.001 370.239 598.129 370.239 603.019C369.897 625.208 369.897 647.398 370.239 669.587C370.239 674.477 368.53 675.605 364.429 675.605C344.609 675.605 324.448 675.605 304.627 675.605C298.818 675.605 298.818 675.229 298.476 669.211C298.476 658.304 298.476 647.774 298.476 636.867Z" fill="#666D72"/>
<path d="M282.073 405.569C282.073 416.851 282.073 427.758 282.073 439.041C282.073 443.554 281.048 445.434 276.605 445.434C256.785 445.059 236.623 445.434 216.804 445.434C212.703 445.434 210.994 444.306 210.994 439.417C211.336 416.851 210.994 394.286 210.994 371.72C210.994 367.959 212.019 366.455 215.779 366.455C236.281 366.455 256.785 366.455 277.289 366.455C281.389 366.455 282.414 368.335 282.414 372.096C282.073 383.003 282.073 394.286 282.073 405.569Z" fill="#666D72"/>
<path d="M263.62 749.32C263.62 760.602 263.62 771.509 263.62 782.792C263.62 786.929 262.595 788.81 258.494 788.433C237.991 788.433 217.487 788.433 196.984 788.433C193.225 788.433 191.858 787.305 191.858 782.792C191.858 760.602 192.2 738.412 191.858 716.223C191.858 711.334 193.908 710.205 197.668 710.205C217.487 710.205 237.649 710.205 257.469 710.205C263.278 710.205 263.278 710.582 263.278 716.975C263.62 727.506 263.62 738.412 263.62 749.32Z" fill="#666D72"/>
<path d="M333.674 788.433C323.764 788.433 313.854 788.433 304.285 788.433C299.843 788.433 298.818 786.928 298.818 782.415C299.159 760.602 299.159 738.412 298.818 716.599C298.818 712.086 300.185 710.205 304.285 710.205C324.448 710.205 344.609 710.205 364.771 710.205C368.188 710.205 370.239 710.957 370.239 715.471C370.239 738.037 370.239 760.602 370.239 783.168C370.239 786.928 369.214 788.433 365.455 788.433C354.861 788.433 344.267 788.433 333.674 788.433Z" fill="#666D72"/>
<path d="M174.103 710.205C184.355 710.205 194.265 710.205 204.517 710.205C208.276 710.205 209.643 711.334 209.643 715.847C209.643 738.412 209.643 760.978 209.643 783.543C209.643 787.681 208.276 788.81 204.859 788.433C184.355 788.433 163.852 788.433 143.348 788.433C139.931 788.433 138.564 787.305 138.564 783.543C138.564 760.978 138.564 738.412 138.564 715.847C138.564 711.334 139.931 710.205 143.69 710.205C153.941 710.205 164.193 710.205 174.103 710.205Z" fill="#666D72"/>
<path d="M623.115 617.311C623.115 604.899 623.115 592.113 623.115 579.701C623.115 576.316 623.798 574.06 627.558 574.06C642.935 574.811 658.654 572.555 674.032 575.564C690.093 578.949 702.737 587.223 706.837 606.028C711.621 628.969 703.762 650.407 681.208 657.552C676.424 659.057 671.639 660.561 666.855 660.561C654.211 660.561 641.226 660.561 628.583 660.937C624.823 660.937 623.115 659.809 623.457 655.296C623.457 642.509 623.115 629.721 623.115 617.311Z" fill="#666D72"/>
<path d="M623.115 421.365C623.115 411.211 623.115 401.056 623.115 390.901C623.115 387.516 623.457 384.884 627.558 384.884C641.91 385.259 656.604 383.756 670.614 387.893C692.143 393.911 702.054 418.356 691.802 440.17C689.067 446.187 684.284 450.324 678.816 452.957C671.981 456.342 664.805 457.47 657.287 457.847C647.719 458.222 638.15 457.847 628.583 458.222C624.14 458.222 623.115 456.342 623.115 451.829C623.456 441.674 623.115 431.519 623.115 421.365Z" fill="#666D72"/>
<path d="M1546.46 538.33C1554.31 560.144 1562.17 582.333 1570.03 604.899C1553.64 604.899 1537.91 604.899 1520.83 604.899C1529.02 582.333 1536.54 560.144 1544.4 538.33C1545.43 537.954 1545.77 538.33 1546.46 538.33Z" fill="#666D72"/>
<path d="M1574.82 742.926C1575.16 741.045 1574.13 738.037 1577.55 738.037C1580.63 738.037 1583.02 739.165 1583.02 743.302C1583.02 746.312 1580.63 748.568 1577.55 748.568C1575.16 748.192 1574.82 747.44 1574.82 742.926Z" fill="#666D72"/>
<g filter="url(#filter1_d_0_1)">
<text fill="#666D72" xml:space="preserve" style="white-space: pre" font-family="Inter" font-size="210" letter-spacing="0.22em"><tspan x="920.616" y="455.364">BAUZAR&#10;</tspan><tspan x="920.616" y="724.364">SMART</tspan></text>
<text stroke="#666D72" xml:space="preserve" style="white-space: pre" font-family="Inter" font-size="210" letter-spacing="0.22em"><tspan x="920.616" y="455.364">BAUZAR&#10;</tspan><tspan x="920.616" y="724.364">SMART</tspan></text>
</g>
<path d="M801.837 506.362C813.456 515.389 823.366 525.167 831.908 536.825C847.969 559.391 856.171 584.965 857.538 613.173C858.905 641.004 856.171 667.706 845.578 693.281C834.643 720.359 816.873 740.669 793.977 755.712C770.057 771.509 743.744 779.782 716.064 784.672C693.852 788.433 671.639 789.562 649.085 789.562C596.802 789.562 544.86 789.937 492.576 789.562C465.579 789.185 438.584 788.809 411.587 788.809C407.486 788.809 405.778 787.68 405.778 782.792C406.119 760.978 405.778 738.789 405.778 716.975C405.778 710.581 405.778 710.581 411.587 710.581C430.382 710.581 449.177 710.581 467.972 710.581C474.806 710.581 474.806 710.581 474.806 703.436C474.806 696.666 474.806 690.272 474.806 683.502C474.806 676.733 474.806 676.356 468.655 676.356C450.544 676.356 432.433 676.356 414.662 676.356C404.411 676.356 405.436 677.109 405.436 666.202C405.436 645.893 405.436 625.96 405.436 605.651C405.436 597.753 405.436 597.753 412.27 597.753C430.723 597.753 449.519 597.753 467.972 597.753C474.806 597.753 474.806 597.753 474.806 590.607C474.806 582.708 474.465 574.811 474.806 567.289C475.148 562.4 473.098 561.272 468.997 561.272C450.544 561.272 432.433 561.272 413.979 561.272C404.411 561.272 405.094 562.024 405.094 551.869C405.094 531.184 405.094 510.499 405.094 489.814C405.094 483.044 405.094 483.044 411.587 483.044C430.382 483.044 449.177 483.044 467.972 483.044C474.465 483.044 474.464 483.044 474.464 475.522C474.464 468.752 474.464 461.606 474.464 454.837C474.464 446.563 474.465 446.186 466.947 446.186C449.519 446.186 432.091 446.186 414.662 446.186C412.954 446.186 411.245 446.186 409.879 446.186C406.461 446.563 405.094 444.682 405.094 440.921C405.094 431.143 405.094 420.988 405.094 411.209C405.094 399.551 405.094 387.892 405.094 375.857C405.094 366.455 404.753 367.583 413.295 367.207C431.407 367.207 449.519 367.207 467.289 367.207C474.806 367.207 474.464 367.958 474.464 359.685C474.464 354.043 474.464 348.402 474.464 342.384C474.464 335.991 474.123 335.991 468.313 335.991C450.886 335.991 433.458 335.991 416.03 335.991C401.677 335.991 404.07 337.495 403.728 322.827C403.728 304.023 403.728 284.842 403.728 266.037C403.728 257.763 403.728 257.387 411.245 257.387C428.332 257.387 445.076 257.387 462.163 257.387C527.773 257.387 593.385 257.011 658.654 257.763C692.827 258.139 726.657 264.157 758.438 279.2C783.042 290.859 803.887 307.784 818.24 332.982C832.934 358.933 837.034 387.891 835.326 417.603C833.959 443.554 827.467 468.001 813.456 489.437C811.064 494.703 806.621 499.969 801.837 506.362Z" fill="#666D72"/>
<path d="M192.2 636.491C192.2 625.208 192.2 613.549 192.2 602.266C192.2 598.506 193.225 597.001 196.984 597.001C217.829 597.001 238.332 597.001 259.177 597.001C262.595 597.001 263.961 598.506 263.961 602.266C263.961 624.833 263.961 647.398 263.961 669.964C263.961 674.101 262.936 675.981 258.835 675.981C238.332 675.981 217.828 675.981 197.326 675.981C193.225 675.981 192.2 674.101 192.2 669.964C192.2 659.057 192.2 647.774 192.2 636.491Z" fill="#666D72"/>
<path d="M370.239 522.535C370.239 533.817 370.239 544.724 370.239 556.007C370.239 560.52 368.872 562.4 364.771 562.4C344.609 562.4 324.448 562.4 304.285 562.4C299.843 562.4 298.818 560.52 298.818 556.007C298.818 533.817 298.818 511.628 298.818 489.438C298.818 485.302 299.843 483.797 303.944 483.797C324.448 483.797 344.951 483.797 365.455 483.797C369.556 483.797 370.581 485.302 370.581 489.438C369.897 500.345 370.239 511.252 370.239 522.535Z" fill="#666D72"/>
<path d="M298.476 636.867C298.476 625.584 298.476 614.678 298.476 603.395C298.476 598.881 299.501 597.001 303.944 597.001C324.106 597.378 344.267 597.001 364.429 597.001C368.53 597.001 370.239 598.129 370.239 603.019C369.897 625.208 369.897 647.398 370.239 669.587C370.239 674.477 368.53 675.605 364.429 675.605C344.609 675.605 324.448 675.605 304.627 675.605C298.818 675.605 298.818 675.229 298.476 669.211C298.476 658.304 298.476 647.774 298.476 636.867Z" fill="#666D72"/>
<path d="M282.073 405.569C282.073 416.851 282.073 427.758 282.073 439.041C282.073 443.554 281.048 445.434 276.605 445.434C256.785 445.059 236.623 445.434 216.804 445.434C212.703 445.434 210.994 444.306 210.994 439.417C211.336 416.851 210.994 394.286 210.994 371.72C210.994 367.959 212.019 366.455 215.779 366.455C236.281 366.455 256.785 366.455 277.289 366.455C281.389 366.455 282.414 368.335 282.414 372.096C282.073 383.003 282.073 394.286 282.073 405.569Z" fill="#666D72"/>
<path d="M263.62 749.32C263.62 760.602 263.62 771.509 263.62 782.792C263.62 786.929 262.595 788.81 258.494 788.433C237.991 788.433 217.487 788.433 196.984 788.433C193.225 788.433 191.858 787.305 191.858 782.792C191.858 760.602 192.2 738.412 191.858 716.223C191.858 711.334 193.908 710.205 197.668 710.205C217.487 710.205 237.649 710.205 257.469 710.205C263.278 710.205 263.278 710.582 263.278 716.975C263.62 727.506 263.62 738.412 263.62 749.32Z" fill="#666D72"/>
<path d="M333.674 788.433C323.764 788.433 313.854 788.433 304.285 788.433C299.843 788.433 298.818 786.928 298.818 782.415C299.159 760.602 299.159 738.412 298.818 716.599C298.818 712.086 300.185 710.205 304.285 710.205C324.448 710.205 344.609 710.205 364.771 710.205C368.188 710.205 370.239 710.957 370.239 715.471C370.239 738.037 370.239 760.602 370.239 783.168C370.239 786.928 369.214 788.433 365.455 788.433C354.861 788.433 344.267 788.433 333.674 788.433Z" fill="#666D72"/>
<path d="M174.103 710.205C184.355 710.205 194.265 710.205 204.517 710.205C208.276 710.205 209.643 711.334 209.643 715.847C209.643 738.412 209.643 760.978 209.643 783.543C209.643 787.681 208.276 788.81 204.859 788.433C184.355 788.433 163.852 788.433 143.348 788.433C139.931 788.433 138.564 787.305 138.564 783.543C138.564 760.978 138.564 738.412 138.564 715.847C138.564 711.334 139.931 710.205 143.69 710.205C153.941 710.205 164.193 710.205 174.103 710.205Z" fill="#666D72"/>
<path d="M623.115 617.311C623.115 604.899 623.115 592.113 623.115 579.701C623.115 576.316 623.798 574.06 627.558 574.06C642.935 574.811 658.654 572.555 674.032 575.564C690.093 578.949 702.737 587.223 706.837 606.028C711.621 628.969 703.762 650.407 681.208 657.552C676.424 659.057 671.639 660.561 666.855 660.561C654.211 660.561 641.226 660.561 628.583 660.937C624.823 660.937 623.115 659.809 623.457 655.296C623.457 642.509 623.115 629.721 623.115 617.311Z" fill="#666D72"/>
<path d="M623.115 421.365C623.115 411.211 623.115 401.056 623.115 390.901C623.115 387.516 623.457 384.884 627.558 384.884C641.91 385.259 656.604 383.756 670.614 387.893C692.143 393.911 702.054 418.356 691.802 440.17C689.067 446.187 684.284 450.324 678.816 452.957C671.981 456.342 664.805 457.47 657.287 457.847C647.719 458.222 638.15 457.847 628.583 458.222C624.14 458.222 623.115 456.342 623.115 451.829C623.456 441.674 623.115 431.519 623.115 421.365Z" fill="#666D72"/>
<path d="M1546.46 538.33C1554.31 560.144 1562.17 582.333 1570.03 604.899C1553.64 604.899 1537.91 604.899 1520.83 604.899C1529.02 582.333 1536.54 560.144 1544.4 538.33C1545.43 537.954 1545.77 538.33 1546.46 538.33Z" fill="#666D72"/>
<path d="M1574.82 742.926C1575.16 741.045 1574.13 738.037 1577.55 738.037C1580.63 738.037 1583.02 739.165 1583.02 743.302C1583.02 746.312 1580.63 748.568 1577.55 748.568C1575.16 748.192 1574.82 747.44 1574.82 742.926Z" fill="#666D72"/>
<g filter="url(#filter2_d_0_1)">
<text fill="#666D72" xml:space="preserve" style="white-space: pre" font-family="Inter" font-size="210" letter-spacing="0.22em"><tspan x="920.616" y="455.364">BAUZAR&#10;</tspan><tspan x="920.616" y="724.364">SMART</tspan></text>
<text stroke="#666D72" xml:space="preserve" style="white-space: pre" font-family="Inter" font-size="210" letter-spacing="0.22em"><tspan x="920.616" y="455.364">BAUZAR&#10;</tspan><tspan x="920.616" y="724.364">SMART</tspan></text>
</g>
<path d="M801.837 506.362C813.456 515.389 823.366 525.167 831.908 536.825C847.969 559.391 856.171 584.965 857.538 613.173C858.905 641.004 856.171 667.706 845.578 693.281C834.643 720.359 816.873 740.669 793.977 755.712C770.057 771.509 743.744 779.782 716.064 784.672C693.852 788.433 671.639 789.562 649.085 789.562C596.802 789.562 544.86 789.937 492.576 789.562C465.579 789.185 438.584 788.809 411.587 788.809C407.486 788.809 405.778 787.68 405.778 782.792C406.119 760.978 405.778 738.789 405.778 716.975C405.778 710.581 405.778 710.581 411.587 710.581C430.382 710.581 449.177 710.581 467.972 710.581C474.806 710.581 474.806 710.581 474.806 703.436C474.806 696.666 474.806 690.272 474.806 683.502C474.806 676.733 474.806 676.356 468.655 676.356C450.544 676.356 432.433 676.356 414.662 676.356C404.411 676.356 405.436 677.109 405.436 666.202C405.436 645.893 405.436 625.96 405.436 605.651C405.436 597.753 405.436 597.753 412.27 597.753C430.723 597.753 449.519 597.753 467.972 597.753C474.806 597.753 474.806 597.753 474.806 590.607C474.806 582.708 474.465 574.811 474.806 567.289C475.148 562.4 473.098 561.272 468.997 561.272C450.544 561.272 432.433 561.272 413.979 561.272C404.411 561.272 405.094 562.024 405.094 551.869C405.094 531.184 405.094 510.499 405.094 489.814C405.094 483.044 405.094 483.044 411.587 483.044C430.382 483.044 449.177 483.044 467.972 483.044C474.465 483.044 474.464 483.044 474.464 475.522C474.464 468.752 474.464 461.606 474.464 454.837C474.464 446.563 474.465 446.186 466.947 446.186C449.519 446.186 432.091 446.186 414.662 446.186C412.954 446.186 411.245 446.186 409.879 446.186C406.461 446.563 405.094 444.682 405.094 440.921C405.094 431.143 405.094 420.988 405.094 411.209C405.094 399.551 405.094 387.892 405.094 375.857C405.094 366.455 404.753 367.583 413.295 367.207C431.407 367.207 449.519 367.207 467.289 367.207C474.806 367.207 474.464 367.958 474.464 359.685C474.464 354.043 474.464 348.402 474.464 342.384C474.464 335.991 474.123 335.991 468.313 335.991C450.886 335.991 433.458 335.991 416.03 335.991C401.677 335.991 404.07 337.495 403.728 322.827C403.728 304.023 403.728 284.842 403.728 266.037C403.728 257.763 403.728 257.387 411.245 257.387C428.332 257.387 445.076 257.387 462.163 257.387C527.773 257.387 593.385 257.011 658.654 257.763C692.827 258.139 726.657 264.157 758.438 279.2C783.042 290.859 803.887 307.784 818.24 332.982C832.934 358.933 837.034 387.891 835.326 417.603C833.959 443.554 827.467 468.001 813.456 489.437C811.064 494.703 806.621 499.969 801.837 506.362Z" fill="#666D72"/>
<path d="M192.2 636.491C192.2 625.208 192.2 613.549 192.2 602.266C192.2 598.506 193.225 597.001 196.984 597.001C217.829 597.001 238.332 597.001 259.177 597.001C262.595 597.001 263.961 598.506 263.961 602.266C263.961 624.833 263.961 647.398 263.961 669.964C263.961 674.101 262.936 675.981 258.835 675.981C238.332 675.981 217.828 675.981 197.326 675.981C193.225 675.981 192.2 674.101 192.2 669.964C192.2 659.057 192.2 647.774 192.2 636.491Z" fill="#666D72"/>
<path d="M370.239 522.535C370.239 533.817 370.239 544.724 370.239 556.007C370.239 560.52 368.872 562.4 364.771 562.4C344.609 562.4 324.448 562.4 304.285 562.4C299.843 562.4 298.818 560.52 298.818 556.007C298.818 533.817 298.818 511.628 298.818 489.438C298.818 485.302 299.843 483.797 303.944 483.797C324.448 483.797 344.951 483.797 365.455 483.797C369.556 483.797 370.581 485.302 370.581 489.438C369.897 500.345 370.239 511.252 370.239 522.535Z" fill="#666D72"/>
<path d="M298.476 636.867C298.476 625.584 298.476 614.678 298.476 603.395C298.476 598.881 299.501 597.001 303.944 597.001C324.106 597.378 344.267 597.001 364.429 597.001C368.53 597.001 370.239 598.129 370.239 603.019C369.897 625.208 369.897 647.398 370.239 669.587C370.239 674.477 368.53 675.605 364.429 675.605C344.609 675.605 324.448 675.605 304.627 675.605C298.818 675.605 298.818 675.229 298.476 669.211C298.476 658.304 298.476 647.774 298.476 636.867Z" fill="#666D72"/>
<path d="M282.073 405.569C282.073 416.851 282.073 427.758 282.073 439.041C282.073 443.554 281.048 445.434 276.605 445.434C256.785 445.059 236.623 445.434 216.804 445.434C212.703 445.434 210.994 444.306 210.994 439.417C211.336 416.851 210.994 394.286 210.994 371.72C210.994 367.959 212.019 366.455 215.779 366.455C236.281 366.455 256.785 366.455 277.289 366.455C281.389 366.455 282.414 368.335 282.414 372.096C282.073 383.003 282.073 394.286 282.073 405.569Z" fill="#666D72"/>
<path d="M263.62 749.32C263.62 760.602 263.62 771.509 263.62 782.792C263.62 786.929 262.595 788.81 258.494 788.433C237.991 788.433 217.487 788.433 196.984 788.433C193.225 788.433 191.858 787.305 191.858 782.792C191.858 760.602 192.2 738.412 191.858 716.223C191.858 711.334 193.908 710.205 197.668 710.205C217.487 710.205 237.649 710.205 257.469 710.205C263.278 710.205 263.278 710.582 263.278 716.975C263.62 727.506 263.62 738.412 263.62 749.32Z" fill="#666D72"/>
<path d="M333.674 788.433C323.764 788.433 313.854 788.433 304.285 788.433C299.843 788.433 298.818 786.928 298.818 782.415C299.159 760.602 299.159 738.412 298.818 716.599C298.818 712.086 300.185 710.205 304.285 710.205C324.448 710.205 344.609 710.205 364.771 710.205C368.188 710.205 370.239 710.957 370.239 715.471C370.239 738.037 370.239 760.602 370.239 783.168C370.239 786.928 369.214 788.433 365.455 788.433C354.861 788.433 344.267 788.433 333.674 788.433Z" fill="#666D72"/>
<path d="M174.103 710.205C184.355 710.205 194.265 710.205 204.517 710.205C208.276 710.205 209.643 711.334 209.643 715.847C209.643 738.412 209.643 760.978 209.643 783.543C209.643 787.681 208.276 788.81 204.859 788.433C184.355 788.433 163.852 788.433 143.348 788.433C139.931 788.433 138.564 787.305 138.564 783.543C138.564 760.978 138.564 738.412 138.564 715.847C138.564 711.334 139.931 710.205 143.69 710.205C153.941 710.205 164.193 710.205 174.103 710.205Z" fill="#666D72"/>
<path d="M623.115 617.311C623.115 604.899 623.115 592.113 623.115 579.701C623.115 576.316 623.798 574.06 627.558 574.06C642.935 574.811 658.654 572.555 674.032 575.564C690.093 578.949 702.737 587.223 706.837 606.028C711.621 628.969 703.762 650.407 681.208 657.552C676.424 659.057 671.639 660.561 666.855 660.561C654.211 660.561 641.226 660.561 628.583 660.937C624.823 660.937 623.115 659.809 623.457 655.296C623.457 642.509 623.115 629.721 623.115 617.311Z" fill="#666D72"/>
<path d="M623.115 421.365C623.115 411.211 623.115 401.056 623.115 390.901C623.115 387.516 623.457 384.884 627.558 384.884C641.91 385.259 656.604 383.756 670.614 387.893C692.143 393.911 702.054 418.356 691.802 440.17C689.067 446.187 684.284 450.324 678.816 452.957C671.981 456.342 664.805 457.47 657.287 457.847C647.719 458.222 638.15 457.847 628.583 458.222C624.14 458.222 623.115 456.342 623.115 451.829C623.456 441.674 623.115 431.519 623.115 421.365Z" fill="#666D72"/>
<path d="M1546.46 538.33C1554.31 560.144 1562.17 582.333 1570.03 604.899C1553.64 604.899 1537.91 604.899 1520.83 604.899C1529.02 582.333 1536.54 560.144 1544.4 538.33C1545.43 537.954 1545.77 538.33 1546.46 538.33Z" fill="#666D72"/>
<path d="M1574.82 742.926C1575.16 741.045 1574.13 738.037 1577.55 738.037C1580.63 738.037 1583.02 739.165 1583.02 743.302C1583.02 746.312 1580.63 748.568 1577.55 748.568C1575.16 748.192 1574.82 747.44 1574.82 742.926Z" fill="#666D72"/>
<g filter="url(#filter3_d_0_1)">
<text fill="#666D72" xml:space="preserve" style="white-space: pre" font-family="Inter" font-size="210" letter-spacing="0.22em"><tspan x="920.616" y="455.364">BAUZAR&#10;</tspan><tspan x="920.616" y="724.364">SMART</tspan></text>
<text stroke="#666D72" xml:space="preserve" style="white-space: pre" font-family="Inter" font-size="210" letter-spacing="0.22em"><tspan x="920.616" y="455.364">BAUZAR&#10;</tspan><tspan x="920.616" y="724.364">SMART</tspan></text>
</g>
<path d="M801.837 506.362C813.456 515.389 823.366 525.167 831.908 536.825C847.969 559.391 856.171 584.965 857.538 613.173C858.905 641.004 856.171 667.706 845.578 693.281C834.643 720.359 816.873 740.669 793.977 755.712C770.057 771.509 743.744 779.782 716.064 784.672C693.852 788.433 671.639 789.562 649.085 789.562C596.802 789.562 544.86 789.937 492.576 789.562C465.579 789.185 438.584 788.809 411.587 788.809C407.486 788.809 405.778 787.68 405.778 782.792C406.119 760.978 405.778 738.789 405.778 716.975C405.778 710.581 405.778 710.581 411.587 710.581C430.382 710.581 449.177 710.581 467.972 710.581C474.806 710.581 474.806 710.581 474.806 703.436C474.806 696.666 474.806 690.272 474.806 683.502C474.806 676.733 474.806 676.356 468.655 676.356C450.544 676.356 432.433 676.356 414.662 676.356C404.411 676.356 405.436 677.109 405.436 666.202C405.436 645.893 405.436 625.96 405.436 605.651C405.436 597.753 405.436 597.753 412.27 597.753C430.723 597.753 449.519 597.753 467.972 597.753C474.806 597.753 474.806 597.753 474.806 590.607C474.806 582.708 474.465 574.811 474.806 567.289C475.148 562.4 473.098 561.272 468.997 561.272C450.544 561.272 432.433 561.272 413.979 561.272C404.411 561.272 405.094 562.024 405.094 551.869C405.094 531.184 405.094 510.499 405.094 489.814C405.094 483.044 405.094 483.044 411.587 483.044C430.382 483.044 449.177 483.044 467.972 483.044C474.465 483.044 474.464 483.044 474.464 475.522C474.464 468.752 474.464 461.606 474.464 454.837C474.464 446.563 474.465 446.186 466.947 446.186C449.519 446.186 432.091 446.186 414.662 446.186C412.954 446.186 411.245 446.186 409.879 446.186C406.461 446.563 405.094 444.682 405.094 440.921C405.094 431.143 405.094 420.988 405.094 411.209C405.094 399.551 405.094 387.892 405.094 375.857C405.094 366.455 404.753 367.583 413.295 367.207C431.407 367.207 449.519 367.207 467.289 367.207C474.806 367.207 474.464 367.958 474.464 359.685C474.464 354.043 474.464 348.402 474.464 342.384C474.464 335.991 474.123 335.991 468.313 335.991C450.886 335.991 433.458 335.991 416.03 335.991C401.677 335.991 404.07 337.495 403.728 322.827C403.728 304.023 403.728 284.842 403.728 266.037C403.728 257.763 403.728 257.387 411.245 257.387C428.332 257.387 445.076 257.387 462.163 257.387C527.773 257.387 593.385 257.011 658.654 257.763C692.827 258.139 726.657 264.157 758.438 279.2C783.042 290.859 803.887 307.784 818.24 332.982C832.934 358.933 837.034 387.891 835.326 417.603C833.959 443.554 827.467 468.001 813.456 489.437C811.064 494.703 806.621 499.969 801.837 506.362Z" fill="#666D72"/>
<path d="M192.2 636.491C192.2 625.208 192.2 613.549 192.2 602.266C192.2 598.506 193.225 597.001 196.984 597.001C217.829 597.001 238.332 597.001 259.177 597.001C262.595 597.001 263.961 598.506 263.961 602.266C263.961 624.833 263.961 647.398 263.961 669.964C263.961 674.101 262.936 675.981 258.835 675.981C238.332 675.981 217.828 675.981 197.326 675.981C193.225 675.981 192.2 674.101 192.2 669.964C192.2 659.057 192.2 647.774 192.2 636.491Z" fill="#666D72"/>
<path d="M370.239 522.535C370.239 533.817 370.239 544.724 370.239 556.007C370.239 560.52 368.872 562.4 364.771 562.4C344.609 562.4 324.448 562.4 304.285 562.4C299.843 562.4 298.818 560.52 298.818 556.007C298.818 533.817 298.818 511.628 298.818 489.438C298.818 485.302 299.843 483.797 303.944 483.797C324.448 483.797 344.951 483.797 365.455 483.797C369.556 483.797 370.581 485.302 370.581 489.438C369.897 500.345 370.239 511.252 370.239 522.535Z" fill="#666D72"/>
<path d="M298.476 636.867C298.476 625.584 298.476 614.678 298.476 603.395C298.476 598.881 299.501 597.001 303.944 597.001C324.106 597.378 344.267 597.001 364.429 597.001C368.53 597.001 370.239 598.129 370.239 603.019C369.897 625.208 369.897 647.398 370.239 669.587C370.239 674.477 368.53 675.605 364.429 675.605C344.609 675.605 324.448 675.605 304.627 675.605C298.818 675.605 298.818 675.229 298.476 669.211C298.476 658.304 298.476 647.774 298.476 636.867Z" fill="#666D72"/>
<path d="M282.073 405.569C282.073 416.851 282.073 427.758 282.073 439.041C282.073 443.554 281.048 445.434 276.605 445.434C256.785 445.059 236.623 445.434 216.804 445.434C212.703 445.434 210.994 444.306 210.994 439.417C211.336 416.851 210.994 394.286 210.994 371.72C210.994 367.959 212.019 366.455 215.779 366.455C236.281 366.455 256.785 366.455 277.289 366.455C281.389 366.455 282.414 368.335 282.414 372.096C282.073 383.003 282.073 394.286 282.073 405.569Z" fill="#666D72"/>
<path d="M263.62 749.32C263.62 760.602 263.62 771.509 263.62 782.792C263.62 786.929 262.595 788.81 258.494 788.433C237.991 788.433 217.487 788.433 196.984 788.433C193.225 788.433 191.858 787.305 191.858 782.792C191.858 760.602 192.2 738.412 191.858 716.223C191.858 711.334 193.908 710.205 197.668 710.205C217.487 710.205 237.649 710.205 257.469 710.205C263.278 710.205 263.278 710.582 263.278 716.975C263.62 727.506 263.62 738.412 263.62 749.32Z" fill="#666D72"/>
<path d="M333.674 788.433C323.764 788.433 313.854 788.433 304.285 788.433C299.843 788.433 298.818 786.928 298.818 782.415C299.159 760.602 299.159 738.412 298.818 716.599C298.818 712.086 300.185 710.205 304.285 710.205C324.448 710.205 344.609 710.205 364.771 710.205C368.188 710.205 370.239 710.957 370.239 715.471C370.239 738.037 370.239 760.602 370.239 783.168C370.239 786.928 369.214 788.433 365.455 788.433C354.861 788.433 344.267 788.433 333.674 788.433Z" fill="#666D72"/>
<path d="M174.103 710.205C184.355 710.205 194.265 710.205 204.517 710.205C208.276 710.205 209.643 711.334 209.643 715.847C209.643 738.412 209.643 760.978 209.643 783.543C209.643 787.681 208.276 788.81 204.859 788.433C184.355 788.433 163.852 788.433 143.348 788.433C139.931 788.433 138.564 787.305 138.564 783.543C138.564 760.978 138.564 738.412 138.564 715.847C138.564 711.334 139.931 710.205 143.69 710.205C153.941 710.205 164.193 710.205 174.103 710.205Z" fill="#666D72"/>
<path d="M623.115 617.311C623.115 604.899 623.115 592.113 623.115 579.701C623.115 576.316 623.798 574.06 627.558 574.06C642.935 574.811 658.654 572.555 674.032 575.564C690.093 578.949 702.737 587.223 706.837 606.028C711.621 628.969 703.762 650.407 681.208 657.552C676.424 659.057 671.639 660.561 666.855 660.561C654.211 660.561 641.226 660.561 628.583 660.937C624.823 660.937 623.115 659.809 623.457 655.296C623.457 642.509 623.115 629.721 623.115 617.311Z" fill="#666D72"/>
<path d="M623.115 421.365C623.115 411.211 623.115 401.056 623.115 390.901C623.115 387.516 623.457 384.884 627.558 384.884C641.91 385.259 656.604 383.756 670.614 387.893C692.143 393.911 702.054 418.356 691.802 440.17C689.067 446.187 684.284 450.324 678.816 452.957C671.981 456.342 664.805 457.47 657.287 457.847C647.719 458.222 638.15 457.847 628.583 458.222C624.14 458.222 623.115 456.342 623.115 451.829C623.456 441.674 623.115 431.519 623.115 421.365Z" fill="#666D72"/>
<path d="M1546.46 538.33C1554.31 560.144 1562.17 582.333 1570.03 604.899C1553.64 604.899 1537.91 604.899 1520.83 604.899C1529.02 582.333 1536.54 560.144 1544.4 538.33C1545.43 537.954 1545.77 538.33 1546.46 538.33Z" fill="#666D72"/>
<path d="M1574.82 742.926C1575.16 741.045 1574.13 738.037 1577.55 738.037C1580.63 738.037 1583.02 739.165 1583.02 743.302C1583.02 746.312 1580.63 748.568 1577.55 748.568C1575.16 748.192 1574.82 747.44 1574.82 742.926Z" fill="#666D72"/>
<g filter="url(#filter4_d_0_1)">
<text fill="#666D72" xml:space="preserve" style="white-space: pre" font-family="Inter" font-size="210" letter-spacing="0.22em"><tspan x="920.616" y="455.364">BAUZAR&#10;</tspan><tspan x="920.616" y="724.364">SMART</tspan></text>
<text stroke="#666D72" xml:space="preserve" style="white-space: pre" font-family="Inter" font-size="210" letter-spacing="0.22em"><tspan x="920.616" y="455.364">BAUZAR&#10;</tspan><tspan x="920.616" y="724.364">SMART</tspan></text>
</g>
<path d="M801.837 506.362C813.456 515.389 823.366 525.167 831.908 536.825C847.969 559.391 856.171 584.965 857.538 613.173C858.905 641.004 856.171 667.706 845.578 693.281C834.643 720.359 816.873 740.669 793.977 755.712C770.057 771.509 743.744 779.782 716.064 784.672C693.852 788.433 671.639 789.562 649.085 789.562C596.802 789.562 544.86 789.937 492.576 789.562C465.579 789.185 438.584 788.809 411.587 788.809C407.486 788.809 405.778 787.68 405.778 782.792C406.119 760.978 405.778 738.789 405.778 716.975C405.778 710.581 405.778 710.581 411.587 710.581C430.382 710.581 449.177 710.581 467.972 710.581C474.806 710.581 474.806 710.581 474.806 703.436C474.806 696.666 474.806 690.272 474.806 683.502C474.806 676.733 474.806 676.356 468.655 676.356C450.544 676.356 432.433 676.356 414.662 676.356C404.411 676.356 405.436 677.109 405.436 666.202C405.436 645.893 405.436 625.96 405.436 605.651C405.436 597.753 405.436 597.753 412.27 597.753C430.723 597.753 449.519 597.753 467.972 597.753C474.806 597.753 474.806 597.753 474.806 590.607C474.806 582.708 474.465 574.811 474.806 567.289C475.148 562.4 473.098 561.272 468.997 561.272C450.544 561.272 432.433 561.272 413.979 561.272C404.411 561.272 405.094 562.024 405.094 551.869C405.094 531.184 405.094 510.499 405.094 489.814C405.094 483.044 405.094 483.044 411.587 483.044C430.382 483.044 449.177 483.044 467.972 483.044C474.465 483.044 474.464 483.044 474.464 475.522C474.464 468.752 474.464 461.606 474.464 454.837C474.464 446.563 474.465 446.186 466.947 446.186C449.519 446.186 432.091 446.186 414.662 446.186C412.954 446.186 411.245 446.186 409.879 446.186C406.461 446.563 405.094 444.682 405.094 440.921C405.094 431.143 405.094 420.988 405.094 411.209C405.094 399.551 405.094 387.892 405.094 375.857C405.094 366.455 404.753 367.583 413.295 367.207C431.407 367.207 449.519 367.207 467.289 367.207C474.806 367.207 474.464 367.958 474.464 359.685C474.464 354.043 474.464 348.402 474.464 342.384C474.464 335.991 474.123 335.991 468.313 335.991C450.886 335.991 433.458 335.991 416.03 335.991C401.677 335.991 404.07 337.495 403.728 322.827C403.728 304.023 403.728 284.842 403.728 266.037C403.728 257.763 403.728 257.387 411.245 257.387C428.332 257.387 445.076 257.387 462.163 257.387C527.773 257.387 593.385 257.011 658.654 257.763C692.827 258.139 726.657 264.157 758.438 279.2C783.042 290.859 803.887 307.784 818.24 332.982C832.934 358.933 837.034 387.891 835.326 417.603C833.959 443.554 827.467 468.001 813.456 489.437C811.064 494.703 806.621 499.969 801.837 506.362Z" fill="#666D72"/>
<path d="M192.2 636.491C192.2 625.208 192.2 613.549 192.2 602.266C192.2 598.506 193.225 597.001 196.984 597.001C217.829 597.001 238.332 597.001 259.177 597.001C262.595 597.001 263.961 598.506 263.961 602.266C263.961 624.833 263.961 647.398 263.961 669.964C263.961 674.101 262.936 675.981 258.835 675.981C238.332 675.981 217.828 675.981 197.326 675.981C193.225 675.981 192.2 674.101 192.2 669.964C192.2 659.057 192.2 647.774 192.2 636.491Z" fill="#666D72"/>
<path d="M370.239 522.535C370.239 533.817 370.239 544.724 370.239 556.007C370.239 560.52 368.872 562.4 364.771 562.4C344.609 562.4 324.448 562.4 304.285 562.4C299.843 562.4 298.818 560.52 298.818 556.007C298.818 533.817 298.818 511.628 298.818 489.438C298.818 485.302 299.843 483.797 303.944 483.797C324.448 483.797 344.951 483.797 365.455 483.797C369.556 483.797 370.581 485.302 370.581 489.438C369.897 500.345 370.239 511.252 370.239 522.535Z" fill="#666D72"/>
<path d="M298.476 636.867C298.476 625.584 298.476 614.678 298.476 603.395C298.476 598.881 299.501 597.001 303.944 597.001C324.106 597.378 344.267 597.001 364.429 597.001C368.53 597.001 370.239 598.129 370.239 603.019C369.897 625.208 369.897 647.398 370.239 669.587C370.239 674.477 368.53 675.605 364.429 675.605C344.609 675.605 324.448 675.605 304.627 675.605C298.818 675.605 298.818 675.229 298.476 669.211C298.476 658.304 298.476 647.774 298.476 636.867Z" fill="#666D72"/>
<path d="M282.073 405.569C282.073 416.851 282.073 427.758 282.073 439.041C282.073 443.554 281.048 445.434 276.605 445.434C256.785 445.059 236.623 445.434 216.804 445.434C212.703 445.434 210.994 444.306 210.994 439.417C211.336 416.851 210.994 394.286 210.994 371.72C210.994 367.959 212.019 366.455 215.779 366.455C236.281 366.455 256.785 366.455 277.289 366.455C281.389 366.455 282.414 368.335 282.414 372.096C282.073 383.003 282.073 394.286 282.073 405.569Z" fill="#666D72"/>
<path d="M263.62 749.32C263.62 760.602 263.62 771.509 263.62 782.792C263.62 786.929 262.595 788.81 258.494 788.433C237.991 788.433 217.487 788.433 196.984 788.433C193.225 788.433 191.858 787.305 191.858 782.792C191.858 760.602 192.2 738.412 191.858 716.223C191.858 711.334 193.908 710.205 197.668 710.205C217.487 710.205 237.649 710.205 257.469 710.205C263.278 710.205 263.278 710.582 263.278 716.975C263.62 727.506 263.62 738.412 263.62 749.32Z" fill="#666D72"/>
<path d="M333.674 788.433C323.764 788.433 313.854 788.433 304.285 788.433C299.843 788.433 298.818 786.928 298.818 782.415C299.159 760.602 299.159 738.412 298.818 716.599C298.818 712.086 300.185 710.205 304.285 710.205C324.448 710.205 344.609 710.205 364.771 710.205C368.188 710.205 370.239 710.957 370.239 715.471C370.239 738.037 370.239 760.602 370.239 783.168C370.239 786.928 369.214 788.433 365.455 788.433C354.861 788.433 344.267 788.433 333.674 788.433Z" fill="#666D72"/>
<path d="M174.103 710.205C184.355 710.205 194.265 710.205 204.517 710.205C208.276 710.205 209.643 711.334 209.643 715.847C209.643 738.412 209.643 760.978 209.643 783.543C209.643 787.681 208.276 788.81 204.859 788.433C184.355 788.433 163.852 788.433 143.348 788.433C139.931 788.433 138.564 787.305 138.564 783.543C138.564 760.978 138.564 738.412 138.564 715.847C138.564 711.334 139.931 710.205 143.69 710.205C153.941 710.205 164.193 710.205 174.103 710.205Z" fill="#666D72"/>
<path d="M623.115 617.311C623.115 604.899 623.115 592.113 623.115 579.701C623.115 576.316 623.798 574.06 627.558 574.06C642.935 574.811 658.654 572.555 674.032 575.564C690.093 578.949 702.737 587.223 706.837 606.028C711.621 628.969 703.762 650.407 681.208 657.552C676.424 659.057 671.639 660.561 666.855 660.561C654.211 660.561 641.226 660.561 628.583 660.937C624.823 660.937 623.115 659.809 623.457 655.296C623.457 642.509 623.115 629.721 623.115 617.311Z" fill="#EEEEEE"/>
<path d="M623.115 421.365C623.115 411.211 623.115 401.056 623.115 390.901C623.115 387.516 623.457 384.884 627.558 384.884C641.91 385.259 656.604 383.756 670.614 387.893C692.143 393.911 702.054 418.356 691.802 440.17C689.067 446.187 684.284 450.324 678.816 452.957C671.981 456.342 664.805 457.47 657.287 457.847C647.719 458.222 638.15 457.847 628.583 458.222C624.14 458.222 623.115 456.342 623.115 451.829C623.456 441.674 623.115 431.519 623.115 421.365Z" fill="url(#paint0_linear_0_1)"/>
<path d="M1546.46 538.33C1554.31 560.144 1562.17 582.333 1570.03 604.899C1553.64 604.899 1537.91 604.899 1520.83 604.899C1529.02 582.333 1536.54 560.144 1544.4 538.33C1545.43 537.954 1545.77 538.33 1546.46 538.33Z" fill="#666D72"/>
<path d="M1574.82 742.926C1575.16 741.045 1574.13 738.037 1577.55 738.037C1580.63 738.037 1583.02 739.165 1583.02 743.302C1583.02 746.312 1580.63 748.568 1577.55 748.568C1575.16 748.192 1574.82 747.44 1574.82 742.926Z" fill="#666D72"/>
<text fill="#666D72" stroke="#666D72" xml:space="preserve" style="white-space: pre" font-family="Inter" font-size="210" letter-spacing="0.22em"><tspan x="920.616" y="455.364">BAUZAR&#10;</tspan><tspan x="920.616" y="724.364">SMART</tspan></text>
<defs>
<filter id="filter0_d_0_1" x="927.474" y="301.272" width="1065.11" height="434.412" filterUnits="userSpaceOnUse" color-interpolation-filters="sRGB">
<feFlood flood-opacity="0" result="BackgroundImageFix"/>
<feColorMatrix in="SourceAlpha" type="matrix" values="0 0 0 0 0 0 0 0 0 0 0 0 0 0 0 0 0 0 127 0" result="hardAlpha"/>
<feOffset dy="4"/>
<feGaussianBlur stdDeviation="2"/>
<feComposite in2="hardAlpha" operator="out"/>
<feColorMatrix type="matrix" values="0 0 0 0 0 0 0 0 0 0 0 0 0 0 0 0 0 0 0.25 0"/>
<feBlend mode="normal" in2="BackgroundImageFix" result="effect1_dropShadow_0_1"/>
<feBlend mode="normal" in="SourceGraphic" in2="effect1_dropShadow_0_1" result="shape"/>
</filter>
<filter id="filter1_d_0_1" x="927.474" y="301.272" width="1065.11" height="434.412" filterUnits="userSpaceOnUse" color-interpolation-filters="sRGB">
<feFlood flood-opacity="0" result="BackgroundImageFix"/>
<feColorMatrix in="SourceAlpha" type="matrix" values="0 0 0 0 0 0 0 0 0 0 0 0 0 0 0 0 0 0 127 0" result="hardAlpha"/>
<feOffset dy="4"/>
<feGaussianBlur stdDeviation="2"/>
<feComposite in2="hardAlpha" operator="out"/>
<feColorMatrix type="matrix" values="0 0 0 0 0 0 0 0 0 0 0 0 0 0 0 0 0 0 0.25 0"/>
<feBlend mode="normal" in2="BackgroundImageFix" result="effect1_dropShadow_0_1"/>
<feBlend mode="normal" in="SourceGraphic" in2="effect1_dropShadow_0_1" result="shape"/>
</filter>
<filter id="filter2_d_0_1" x="927.474" y="301.272" width="1065.11" height="434.412" filterUnits="userSpaceOnUse" color-interpolation-filters="sRGB">
<feFlood flood-opacity="0" result="BackgroundImageFix"/>
<feColorMatrix in="SourceAlpha" type="matrix" values="0 0 0 0 0 0 0 0 0 0 0 0 0 0 0 0 0 0 127 0" result="hardAlpha"/>
<feOffset dy="4"/>
<feGaussianBlur stdDeviation="2"/>
<feComposite in2="hardAlpha" operator="out"/>
<feColorMatrix type="matrix" values="0 0 0 0 0 0 0 0 0 0 0 0 0 0 0 0 0 0 0.25 0"/>
<feBlend mode="normal" in2="BackgroundImageFix" result="effect1_dropShadow_0_1"/>
<feBlend mode="normal" in="SourceGraphic" in2="effect1_dropShadow_0_1" result="shape"/>
</filter>
<filter id="filter3_d_0_1" x="927.474" y="301.272" width="1065.11" height="434.412" filterUnits="userSpaceOnUse" color-interpolation-filters="sRGB">
<feFlood flood-opacity="0" result="BackgroundImageFix"/>
<feColorMatrix in="SourceAlpha" type="matrix" values="0 0 0 0 0 0 0 0 0 0 0 0 0 0 0 0 0 0 127 0" result="hardAlpha"/>
<feOffset dy="4"/>
<feGaussianBlur stdDeviation="2"/>
<feComposite in2="hardAlpha" operator="out"/>
<feColorMatrix type="matrix" values="0 0 0 0 0 0 0 0 0 0 0 0 0 0 0 0 0 0 0.25 0"/>
<feBlend mode="normal" in2="BackgroundImageFix" result="effect1_dropShadow_0_1"/>
<feBlend mode="normal" in="SourceGraphic" in2="effect1_dropShadow_0_1" result="shape"/>
</filter>
<filter id="filter4_d_0_1" x="927.474" y="301.272" width="1065.11" height="434.412" filterUnits="userSpaceOnUse" color-interpolation-filters="sRGB">
<feFlood flood-opacity="0" result="BackgroundImageFix"/>
<feColorMatrix in="SourceAlpha" type="matrix" values="0 0 0 0 0 0 0 0 0 0 0 0 0 0 0 0 0 0 127 0" result="hardAlpha"/>
<feOffset dy="4"/>
<feGaussianBlur stdDeviation="2"/>
<feComposite in2="hardAlpha" operator="out"/>
<feColorMatrix type="matrix" values="0 0 0 0 0 0 0 0 0 0 0 0 0 0 0 0 0 0 0.25 0"/>
<feBlend mode="normal" in2="BackgroundImageFix" result="effect1_dropShadow_0_1"/>
<feBlend mode="normal" in="SourceGraphic" in2="effect1_dropShadow_0_1" result="shape"/>
</filter>
<linearGradient id="paint0_linear_0_1" x1="659.49" y1="384.884" x2="659.49" y2="458.222" gradientUnits="userSpaceOnUse">
<stop stop-color="#EAEAEA"/>
<stop offset="1" stop-color="#848484"/>
</linearGradient>
</defs>
</svg>
