<svg width="2091" height="1037" viewBox="0 0 2091 1037" fill="none" xmlns="http://www.w3.org/2000/svg">
<path d="M789.379 506.362C800.818 515.389 810.574 525.167 818.983 536.826C834.795 559.391 842.869 584.966 844.215 613.173C845.561 641.004 842.869 667.707 832.44 693.281C821.675 720.36 804.181 740.669 781.641 755.713C758.093 771.509 732.189 779.783 704.939 784.672C683.072 788.433 661.204 789.562 639.001 789.562C587.53 789.562 536.395 789.938 484.923 789.562C458.346 789.185 431.77 788.81 405.192 788.81C401.155 788.81 399.474 787.681 399.474 782.792C399.809 760.978 399.474 738.789 399.474 716.975C399.474 710.582 399.474 710.582 405.192 710.582C423.696 710.582 442.198 710.582 460.701 710.582C467.429 710.582 467.429 710.582 467.429 703.436C467.429 696.666 467.429 690.272 467.429 683.502C467.429 676.733 467.429 676.357 461.374 676.357C443.544 676.357 425.714 676.357 408.22 676.357C398.128 676.357 399.137 677.109 399.137 666.202C399.137 645.893 399.137 625.961 399.137 605.651C399.137 597.753 399.137 597.753 405.865 597.753C424.031 597.753 442.535 597.753 460.701 597.753C467.429 597.753 467.429 597.753 467.429 590.608C467.429 582.709 467.093 574.811 467.429 567.29C467.766 562.4 465.747 561.272 461.71 561.272C443.544 561.272 425.714 561.272 407.548 561.272C398.128 561.272 398.8 562.025 398.8 551.87C398.8 531.185 398.8 510.499 398.8 489.814C398.8 483.044 398.8 483.044 405.192 483.044C423.696 483.044 442.198 483.044 460.701 483.044C467.093 483.044 467.092 483.044 467.092 475.522C467.092 468.752 467.092 461.607 467.092 454.837C467.092 446.564 467.093 446.187 459.692 446.187C442.535 446.187 425.377 446.187 408.22 446.187C406.538 446.187 404.856 446.187 403.511 446.187C400.146 446.563 398.8 444.682 398.8 440.922C398.8 431.144 398.8 420.989 398.8 411.21C398.8 399.551 398.8 387.893 398.8 375.858C398.8 366.455 398.464 367.583 406.874 367.208C424.705 367.208 442.535 367.208 460.029 367.208C467.429 367.208 467.092 367.959 467.092 359.685C467.092 354.044 467.092 348.402 467.092 342.385C467.092 335.991 466.757 335.991 461.037 335.991C443.881 335.991 426.723 335.991 409.566 335.991C395.437 335.991 397.792 337.496 397.455 322.828C397.455 304.023 397.455 284.842 397.455 266.038C397.455 257.764 397.455 257.387 404.856 257.387C421.677 257.387 438.161 257.387 454.982 257.387C519.573 257.387 584.166 257.011 648.421 257.763C682.063 258.14 715.367 264.157 746.654 279.201C770.876 290.86 791.398 307.784 805.527 332.982C819.993 358.933 824.03 387.892 822.348 417.604C821.002 443.554 814.611 468.001 800.818 489.438C798.463 494.704 794.089 499.969 789.379 506.362Z" fill="#8B3FFD"/>
<path d="M189.213 636.491C189.213 625.208 189.213 613.549 189.213 602.266C189.213 598.505 190.223 597.001 193.923 597.001C214.445 597.001 234.629 597.001 255.15 597.001C258.515 597.001 259.86 598.505 259.86 602.266C259.86 624.833 259.86 647.398 259.86 669.964C259.86 674.101 258.851 675.981 254.814 675.981C234.629 675.981 214.444 675.981 194.26 675.981C190.223 675.981 189.213 674.101 189.213 669.964C189.213 659.056 189.213 647.774 189.213 636.491Z" fill="#8B3FFD"/>
<path d="M364.487 522.534C364.487 533.817 364.487 544.723 364.487 556.007C364.487 560.52 363.141 562.4 359.104 562.4C339.255 562.4 319.407 562.4 299.558 562.4C295.185 562.4 294.176 560.52 294.176 556.007C294.176 533.817 294.176 511.627 294.176 489.437C294.176 485.301 295.185 483.797 299.222 483.797C319.407 483.797 339.592 483.797 359.777 483.797C363.814 483.797 364.823 485.301 364.823 489.437C364.15 500.345 364.487 511.252 364.487 522.534Z" fill="#8B3FFD"/>
<path d="M293.839 636.867C293.839 625.584 293.839 614.678 293.839 603.395C293.839 598.881 294.848 597.001 299.222 597.001C319.07 597.378 338.918 597.001 358.767 597.001C362.804 597.001 364.486 598.129 364.486 603.018C364.15 625.208 364.15 647.398 364.486 669.587C364.486 674.476 362.804 675.604 358.767 675.604C339.255 675.604 319.407 675.604 299.894 675.604C294.176 675.604 294.176 675.229 293.839 669.211C293.839 658.304 293.839 647.774 293.839 636.867Z" fill="#8B3FFD"/>
<path d="M277.691 405.569C277.691 416.852 277.691 427.759 277.691 439.041C277.691 443.554 276.682 445.435 272.308 445.435C252.795 445.059 232.947 445.435 213.436 445.435C209.399 445.435 207.716 444.307 207.716 439.417C208.053 416.851 207.716 394.286 207.716 371.72C207.716 367.959 208.725 366.455 212.426 366.455C232.61 366.455 252.795 366.455 272.98 366.455C277.017 366.455 278.027 368.336 278.027 372.096C277.691 383.003 277.691 394.286 277.691 405.569Z" fill="#8B3FFD"/>
<path d="M259.525 749.32C259.525 760.602 259.525 771.509 259.525 782.792C259.525 786.929 258.515 788.81 254.478 788.433C234.293 788.433 214.108 788.433 193.923 788.433C190.223 788.433 188.877 787.305 188.877 782.792C188.877 760.602 189.214 738.412 188.877 716.223C188.877 711.334 190.895 710.205 194.597 710.205C214.108 710.205 233.957 710.205 253.469 710.205C259.188 710.205 259.188 710.582 259.188 716.975C259.525 727.506 259.525 738.412 259.525 749.32Z" fill="#8B3FFD"/>
<path d="M328.49 788.433C318.734 788.433 308.978 788.433 299.558 788.433C295.185 788.433 294.176 786.928 294.176 782.415C294.512 760.602 294.512 738.412 294.176 716.599C294.176 712.086 295.521 710.205 299.558 710.205C319.407 710.205 339.255 710.205 359.104 710.205C362.468 710.205 364.487 710.957 364.487 715.471C364.487 738.037 364.487 760.602 364.487 783.168C364.487 786.928 363.477 788.433 359.777 788.433C349.348 788.433 338.919 788.433 328.49 788.433Z" fill="#8B3FFD"/>
<path d="M171.398 710.205C181.491 710.205 191.247 710.205 201.34 710.205C205.04 710.205 206.386 711.334 206.386 715.847C206.386 738.412 206.386 760.978 206.386 783.543C206.386 787.681 205.04 788.81 201.676 788.433C181.491 788.433 161.306 788.433 141.121 788.433C137.757 788.433 136.411 787.305 136.411 783.543C136.411 760.978 136.411 738.412 136.411 715.847C136.411 711.334 137.757 710.205 141.457 710.205C151.55 710.205 161.642 710.205 171.398 710.205Z" fill="#8B3FFD"/>
<path d="M613.434 617.31C613.434 604.899 613.434 592.112 613.434 579.701C613.434 576.316 614.106 574.06 617.807 574.06C632.946 574.811 648.421 572.555 663.559 575.563C679.371 578.948 691.818 587.223 695.855 606.028C700.565 628.969 692.828 650.406 670.624 657.552C665.915 659.057 661.204 660.561 656.495 660.561C644.047 660.561 631.263 660.561 618.817 660.937C615.115 660.937 613.434 659.809 613.77 655.296C613.77 642.509 613.434 629.721 613.434 617.31Z" fill="white"/>
<path d="M613.434 421.364C613.434 411.211 613.434 401.056 613.434 390.901C613.434 387.516 613.77 384.883 617.807 384.883C631.937 385.259 646.402 383.755 660.195 387.893C681.389 393.91 691.146 418.356 681.053 440.169C678.361 446.187 673.652 450.324 668.269 452.957C661.541 456.342 654.476 457.47 647.075 457.846C637.656 458.222 628.236 457.846 618.817 458.222C614.443 458.222 613.434 456.342 613.434 451.829C613.769 441.674 613.434 431.519 613.434 421.364Z" fill="white"/>
<path d="M1550.35 742.925C1550.68 741.045 1549.67 738.037 1553.04 738.037C1556.07 738.037 1558.42 739.165 1558.42 743.302C1558.42 746.311 1556.07 748.567 1553.04 748.567C1550.68 748.192 1550.35 747.439 1550.35 742.925Z" fill="white"/>
<path d="M789.379 506.362C800.818 515.389 810.574 525.167 818.983 536.826C834.795 559.391 842.869 584.966 844.215 613.173C845.561 641.004 842.869 667.707 832.44 693.281C821.675 720.36 804.181 740.669 781.641 755.713C758.093 771.509 732.189 779.783 704.939 784.672C683.072 788.433 661.204 789.562 639.001 789.562C587.53 789.562 536.395 789.938 484.923 789.562C458.346 789.185 431.77 788.81 405.192 788.81C401.155 788.81 399.474 787.681 399.474 782.792C399.809 760.978 399.474 738.789 399.474 716.975C399.474 710.582 399.474 710.582 405.192 710.582C423.696 710.582 442.198 710.582 460.701 710.582C467.429 710.582 467.429 710.582 467.429 703.436C467.429 696.666 467.429 690.272 467.429 683.502C467.429 676.733 467.429 676.357 461.374 676.357C443.544 676.357 425.714 676.357 408.22 676.357C398.128 676.357 399.137 677.109 399.137 666.202C399.137 645.893 399.137 625.961 399.137 605.651C399.137 597.753 399.137 597.753 405.865 597.753C424.031 597.753 442.535 597.753 460.701 597.753C467.429 597.753 467.429 597.753 467.429 590.608C467.429 582.709 467.093 574.811 467.429 567.29C467.766 562.4 465.747 561.272 461.71 561.272C443.544 561.272 425.714 561.272 407.548 561.272C398.128 561.272 398.8 562.025 398.8 551.87C398.8 531.185 398.8 510.499 398.8 489.814C398.8 483.044 398.8 483.044 405.192 483.044C423.696 483.044 442.198 483.044 460.701 483.044C467.093 483.044 467.092 483.044 467.092 475.522C467.092 468.752 467.092 461.607 467.092 454.837C467.092 446.564 467.093 446.187 459.692 446.187C442.535 446.187 425.377 446.187 408.22 446.187C406.538 446.187 404.856 446.187 403.511 446.187C400.146 446.563 398.8 444.682 398.8 440.922C398.8 431.144 398.8 420.989 398.8 411.21C398.8 399.551 398.8 387.893 398.8 375.858C398.8 366.455 398.464 367.583 406.874 367.208C424.705 367.208 442.535 367.208 460.029 367.208C467.429 367.208 467.092 367.959 467.092 359.685C467.092 354.044 467.092 348.402 467.092 342.385C467.092 335.991 466.757 335.991 461.037 335.991C443.881 335.991 426.723 335.991 409.566 335.991C395.437 335.991 397.792 337.496 397.455 322.828C397.455 304.023 397.455 284.842 397.455 266.038C397.455 257.764 397.455 257.387 404.856 257.387C421.677 257.387 438.161 257.387 454.982 257.387C519.573 257.387 584.166 257.011 648.421 257.763C682.063 258.14 715.367 264.157 746.654 279.201C770.876 290.86 791.398 307.784 805.527 332.982C819.993 358.933 824.03 387.892 822.348 417.604C821.002 443.554 814.611 468.001 800.818 489.438C798.463 494.704 794.089 499.969 789.379 506.362Z" fill="#8B3FFD"/>
<path d="M189.213 636.491C189.213 625.208 189.213 613.549 189.213 602.266C189.213 598.505 190.223 597.001 193.923 597.001C214.445 597.001 234.629 597.001 255.15 597.001C258.515 597.001 259.86 598.505 259.86 602.266C259.86 624.833 259.86 647.398 259.86 669.964C259.86 674.101 258.851 675.981 254.814 675.981C234.629 675.981 214.444 675.981 194.26 675.981C190.223 675.981 189.213 674.101 189.213 669.964C189.213 659.056 189.213 647.774 189.213 636.491Z" fill="#8B3FFD"/>
<path d="M364.487 522.534C364.487 533.817 364.487 544.723 364.487 556.007C364.487 560.52 363.141 562.4 359.104 562.4C339.255 562.4 319.407 562.4 299.558 562.4C295.185 562.4 294.176 560.52 294.176 556.007C294.176 533.817 294.176 511.627 294.176 489.437C294.176 485.301 295.185 483.797 299.222 483.797C319.407 483.797 339.592 483.797 359.777 483.797C363.814 483.797 364.823 485.301 364.823 489.437C364.15 500.345 364.487 511.252 364.487 522.534Z" fill="#8B3FFD"/>
<path d="M293.839 636.867C293.839 625.584 293.839 614.678 293.839 603.395C293.839 598.881 294.848 597.001 299.222 597.001C319.07 597.378 338.918 597.001 358.767 597.001C362.804 597.001 364.486 598.129 364.486 603.018C364.15 625.208 364.15 647.398 364.486 669.587C364.486 674.476 362.804 675.604 358.767 675.604C339.255 675.604 319.407 675.604 299.894 675.604C294.176 675.604 294.176 675.229 293.839 669.211C293.839 658.304 293.839 647.774 293.839 636.867Z" fill="#8B3FFD"/>
<path d="M277.691 405.569C277.691 416.852 277.691 427.759 277.691 439.041C277.691 443.554 276.682 445.435 272.308 445.435C252.795 445.059 232.947 445.435 213.436 445.435C209.399 445.435 207.716 444.307 207.716 439.417C208.053 416.851 207.716 394.286 207.716 371.72C207.716 367.959 208.725 366.455 212.426 366.455C232.61 366.455 252.795 366.455 272.98 366.455C277.017 366.455 278.027 368.336 278.027 372.096C277.691 383.003 277.691 394.286 277.691 405.569Z" fill="#8B3FFD"/>
<path d="M259.525 749.32C259.525 760.602 259.525 771.509 259.525 782.792C259.525 786.929 258.515 788.81 254.478 788.433C234.293 788.433 214.108 788.433 193.923 788.433C190.223 788.433 188.877 787.305 188.877 782.792C188.877 760.602 189.214 738.412 188.877 716.223C188.877 711.334 190.895 710.205 194.597 710.205C214.108 710.205 233.957 710.205 253.469 710.205C259.188 710.205 259.188 710.582 259.188 716.975C259.525 727.506 259.525 738.412 259.525 749.32Z" fill="#8B3FFD"/>
<path d="M328.49 788.433C318.734 788.433 308.978 788.433 299.558 788.433C295.185 788.433 294.176 786.928 294.176 782.415C294.512 760.602 294.512 738.412 294.176 716.599C294.176 712.086 295.521 710.205 299.558 710.205C319.407 710.205 339.255 710.205 359.104 710.205C362.468 710.205 364.487 710.957 364.487 715.471C364.487 738.037 364.487 760.602 364.487 783.168C364.487 786.928 363.477 788.433 359.777 788.433C349.348 788.433 338.919 788.433 328.49 788.433Z" fill="#8B3FFD"/>
<path d="M171.398 710.205C181.491 710.205 191.247 710.205 201.34 710.205C205.04 710.205 206.386 711.334 206.386 715.847C206.386 738.412 206.386 760.978 206.386 783.543C206.386 787.681 205.04 788.81 201.676 788.433C181.491 788.433 161.306 788.433 141.121 788.433C137.757 788.433 136.411 787.305 136.411 783.543C136.411 760.978 136.411 738.412 136.411 715.847C136.411 711.334 137.757 710.205 141.457 710.205C151.55 710.205 161.642 710.205 171.398 710.205Z" fill="#8B3FFD"/>
<path d="M613.434 617.31C613.434 604.899 613.434 592.112 613.434 579.701C613.434 576.316 614.106 574.06 617.807 574.06C632.946 574.811 648.421 572.555 663.559 575.563C679.371 578.948 691.818 587.223 695.855 606.028C700.565 628.969 692.828 650.406 670.624 657.552C665.915 659.057 661.204 660.561 656.495 660.561C644.047 660.561 631.263 660.561 618.817 660.937C615.115 660.937 613.434 659.809 613.77 655.296C613.77 642.509 613.434 629.721 613.434 617.31Z" fill="white"/>
<path d="M613.434 421.364C613.434 411.211 613.434 401.056 613.434 390.901C613.434 387.516 613.77 384.883 617.807 384.883C631.937 385.259 646.402 383.755 660.195 387.893C681.389 393.91 691.146 418.356 681.053 440.169C678.361 446.187 673.652 450.324 668.269 452.957C661.541 456.342 654.476 457.47 647.075 457.846C637.656 458.222 628.236 457.846 618.817 458.222C614.443 458.222 613.434 456.342 613.434 451.829C613.769 441.674 613.434 431.519 613.434 421.364Z" fill="white"/>
<path d="M1550.35 742.925C1550.68 741.045 1549.67 738.037 1553.04 738.037C1556.07 738.037 1558.42 739.165 1558.42 743.302C1558.42 746.311 1556.07 748.567 1553.04 748.567C1550.68 748.192 1550.35 747.439 1550.35 742.925Z" fill="white"/>
<path d="M789.379 506.362C800.818 515.389 810.574 525.167 818.983 536.826C834.795 559.391 842.869 584.966 844.215 613.173C845.561 641.004 842.869 667.707 832.44 693.281C821.675 720.36 804.181 740.669 781.641 755.713C758.093 771.509 732.189 779.783 704.939 784.672C683.072 788.433 661.204 789.562 639.001 789.562C587.53 789.562 536.395 789.938 484.923 789.562C458.346 789.185 431.77 788.81 405.192 788.81C401.155 788.81 399.474 787.681 399.474 782.792C399.809 760.978 399.474 738.789 399.474 716.975C399.474 710.582 399.474 710.582 405.192 710.582C423.696 710.582 442.198 710.582 460.701 710.582C467.429 710.582 467.429 710.582 467.429 703.436C467.429 696.666 467.429 690.272 467.429 683.502C467.429 676.733 467.429 676.357 461.374 676.357C443.544 676.357 425.714 676.357 408.22 676.357C398.128 676.357 399.137 677.109 399.137 666.202C399.137 645.893 399.137 625.961 399.137 605.651C399.137 597.753 399.137 597.753 405.865 597.753C424.031 597.753 442.535 597.753 460.701 597.753C467.429 597.753 467.429 597.753 467.429 590.608C467.429 582.709 467.093 574.811 467.429 567.29C467.766 562.4 465.747 561.272 461.71 561.272C443.544 561.272 425.714 561.272 407.548 561.272C398.128 561.272 398.8 562.025 398.8 551.87C398.8 531.185 398.8 510.499 398.8 489.814C398.8 483.044 398.8 483.044 405.192 483.044C423.696 483.044 442.198 483.044 460.701 483.044C467.093 483.044 467.092 483.044 467.092 475.522C467.092 468.752 467.092 461.607 467.092 454.837C467.092 446.564 467.093 446.187 459.692 446.187C442.535 446.187 425.377 446.187 408.22 446.187C406.538 446.187 404.856 446.187 403.511 446.187C400.146 446.563 398.8 444.682 398.8 440.922C398.8 431.144 398.8 420.989 398.8 411.21C398.8 399.551 398.8 387.893 398.8 375.858C398.8 366.455 398.464 367.583 406.874 367.208C424.705 367.208 442.535 367.208 460.029 367.208C467.429 367.208 467.092 367.959 467.092 359.685C467.092 354.044 467.092 348.402 467.092 342.385C467.092 335.991 466.757 335.991 461.037 335.991C443.881 335.991 426.723 335.991 409.566 335.991C395.437 335.991 397.792 337.496 397.455 322.828C397.455 304.023 397.455 284.842 397.455 266.038C397.455 257.764 397.455 257.387 404.856 257.387C421.677 257.387 438.161 257.387 454.982 257.387C519.573 257.387 584.166 257.011 648.421 257.763C682.063 258.14 715.367 264.157 746.654 279.201C770.876 290.86 791.398 307.784 805.527 332.982C819.993 358.933 824.03 387.892 822.348 417.604C821.002 443.554 814.611 468.001 800.818 489.438C798.463 494.704 794.089 499.969 789.379 506.362Z" fill="#8B3FFD"/>
<path d="M189.213 636.491C189.213 625.208 189.213 613.549 189.213 602.266C189.213 598.505 190.223 597.001 193.923 597.001C214.445 597.001 234.629 597.001 255.15 597.001C258.515 597.001 259.86 598.505 259.86 602.266C259.86 624.833 259.86 647.398 259.86 669.964C259.86 674.101 258.851 675.981 254.814 675.981C234.629 675.981 214.444 675.981 194.26 675.981C190.223 675.981 189.213 674.101 189.213 669.964C189.213 659.056 189.213 647.774 189.213 636.491Z" fill="#8B3FFD"/>
<path d="M364.487 522.534C364.487 533.817 364.487 544.723 364.487 556.007C364.487 560.52 363.141 562.4 359.104 562.4C339.255 562.4 319.407 562.4 299.558 562.4C295.185 562.4 294.176 560.52 294.176 556.007C294.176 533.817 294.176 511.627 294.176 489.437C294.176 485.301 295.185 483.797 299.222 483.797C319.407 483.797 339.592 483.797 359.777 483.797C363.814 483.797 364.823 485.301 364.823 489.437C364.15 500.345 364.487 511.252 364.487 522.534Z" fill="#8B3FFD"/>
<path d="M293.839 636.867C293.839 625.584 293.839 614.678 293.839 603.395C293.839 598.881 294.848 597.001 299.222 597.001C319.07 597.378 338.918 597.001 358.767 597.001C362.804 597.001 364.486 598.129 364.486 603.018C364.15 625.208 364.15 647.398 364.486 669.587C364.486 674.476 362.804 675.604 358.767 675.604C339.255 675.604 319.407 675.604 299.894 675.604C294.176 675.604 294.176 675.229 293.839 669.211C293.839 658.304 293.839 647.774 293.839 636.867Z" fill="#8B3FFD"/>
<path d="M277.691 405.569C277.691 416.852 277.691 427.759 277.691 439.041C277.691 443.554 276.682 445.435 272.308 445.435C252.795 445.059 232.947 445.435 213.436 445.435C209.399 445.435 207.716 444.307 207.716 439.417C208.053 416.851 207.716 394.286 207.716 371.72C207.716 367.959 208.725 366.455 212.426 366.455C232.61 366.455 252.795 366.455 272.98 366.455C277.017 366.455 278.027 368.336 278.027 372.096C277.691 383.003 277.691 394.286 277.691 405.569Z" fill="#8B3FFD"/>
<path d="M259.525 749.32C259.525 760.602 259.525 771.509 259.525 782.792C259.525 786.929 258.515 788.81 254.478 788.433C234.293 788.433 214.108 788.433 193.923 788.433C190.223 788.433 188.877 787.305 188.877 782.792C188.877 760.602 189.214 738.412 188.877 716.223C188.877 711.334 190.895 710.205 194.597 710.205C214.108 710.205 233.957 710.205 253.469 710.205C259.188 710.205 259.188 710.582 259.188 716.975C259.525 727.506 259.525 738.412 259.525 749.32Z" fill="#8B3FFD"/>
<path d="M328.49 788.433C318.734 788.433 308.978 788.433 299.558 788.433C295.185 788.433 294.176 786.928 294.176 782.415C294.512 760.602 294.512 738.412 294.176 716.599C294.176 712.086 295.521 710.205 299.558 710.205C319.407 710.205 339.255 710.205 359.104 710.205C362.468 710.205 364.487 710.957 364.487 715.471C364.487 738.037 364.487 760.602 364.487 783.168C364.487 786.928 363.477 788.433 359.777 788.433C349.348 788.433 338.919 788.433 328.49 788.433Z" fill="#8B3FFD"/>
<path d="M171.398 710.205C181.491 710.205 191.247 710.205 201.34 710.205C205.04 710.205 206.386 711.334 206.386 715.847C206.386 738.412 206.386 760.978 206.386 783.543C206.386 787.681 205.04 788.81 201.676 788.433C181.491 788.433 161.306 788.433 141.121 788.433C137.757 788.433 136.411 787.305 136.411 783.543C136.411 760.978 136.411 738.412 136.411 715.847C136.411 711.334 137.757 710.205 141.457 710.205C151.55 710.205 161.642 710.205 171.398 710.205Z" fill="#8B3FFD"/>
<path d="M613.434 617.31C613.434 604.899 613.434 592.112 613.434 579.701C613.434 576.316 614.106 574.06 617.807 574.06C632.946 574.811 648.421 572.555 663.559 575.563C679.371 578.948 691.818 587.223 695.855 606.028C700.565 628.969 692.828 650.406 670.624 657.552C665.915 659.057 661.204 660.561 656.495 660.561C644.047 660.561 631.263 660.561 618.817 660.937C615.115 660.937 613.434 659.809 613.77 655.296C613.77 642.509 613.434 629.721 613.434 617.31Z" fill="white"/>
<path d="M613.434 421.364C613.434 411.211 613.434 401.056 613.434 390.901C613.434 387.516 613.77 384.883 617.807 384.883C631.937 385.259 646.402 383.755 660.195 387.893C681.389 393.91 691.146 418.356 681.053 440.169C678.361 446.187 673.652 450.324 668.269 452.957C661.541 456.342 654.476 457.47 647.075 457.846C637.656 458.222 628.236 457.846 618.817 458.222C614.443 458.222 613.434 456.342 613.434 451.829C613.769 441.674 613.434 431.519 613.434 421.364Z" fill="white"/>
<path d="M1550.35 742.925C1550.68 741.045 1549.67 738.037 1553.04 738.037C1556.07 738.037 1558.42 739.165 1558.42 743.302C1558.42 746.311 1556.07 748.567 1553.04 748.567C1550.68 748.192 1550.35 747.439 1550.35 742.925Z" fill="white"/>
<path d="M789.379 506.362C800.818 515.389 810.574 525.167 818.983 536.826C834.795 559.391 842.869 584.966 844.215 613.173C845.561 641.004 842.869 667.707 832.44 693.281C821.675 720.36 804.181 740.669 781.641 755.713C758.093 771.509 732.189 779.783 704.939 784.672C683.072 788.433 661.204 789.562 639.001 789.562C587.53 789.562 536.395 789.938 484.923 789.562C458.346 789.185 431.77 788.81 405.192 788.81C401.155 788.81 399.474 787.681 399.474 782.792C399.809 760.978 399.474 738.789 399.474 716.975C399.474 710.582 399.474 710.582 405.192 710.582C423.696 710.582 442.198 710.582 460.701 710.582C467.429 710.582 467.429 710.582 467.429 703.436C467.429 696.666 467.429 690.272 467.429 683.502C467.429 676.733 467.429 676.357 461.374 676.357C443.544 676.357 425.714 676.357 408.22 676.357C398.128 676.357 399.137 677.109 399.137 666.202C399.137 645.893 399.137 625.961 399.137 605.651C399.137 597.753 399.137 597.753 405.865 597.753C424.031 597.753 442.535 597.753 460.701 597.753C467.429 597.753 467.429 597.753 467.429 590.608C467.429 582.709 467.093 574.811 467.429 567.29C467.766 562.4 465.747 561.272 461.71 561.272C443.544 561.272 425.714 561.272 407.548 561.272C398.128 561.272 398.8 562.025 398.8 551.87C398.8 531.185 398.8 510.499 398.8 489.814C398.8 483.044 398.8 483.044 405.192 483.044C423.696 483.044 442.198 483.044 460.701 483.044C467.093 483.044 467.092 483.044 467.092 475.522C467.092 468.752 467.092 461.607 467.092 454.837C467.092 446.564 467.093 446.187 459.692 446.187C442.535 446.187 425.377 446.187 408.22 446.187C406.538 446.187 404.856 446.187 403.511 446.187C400.146 446.563 398.8 444.682 398.8 440.922C398.8 431.144 398.8 420.989 398.8 411.21C398.8 399.551 398.8 387.893 398.8 375.858C398.8 366.455 398.464 367.583 406.874 367.208C424.705 367.208 442.535 367.208 460.029 367.208C467.429 367.208 467.092 367.959 467.092 359.685C467.092 354.044 467.092 348.402 467.092 342.385C467.092 335.991 466.757 335.991 461.037 335.991C443.881 335.991 426.723 335.991 409.566 335.991C395.437 335.991 397.792 337.496 397.455 322.828C397.455 304.023 397.455 284.842 397.455 266.038C397.455 257.764 397.455 257.387 404.856 257.387C421.677 257.387 438.161 257.387 454.982 257.387C519.573 257.387 584.166 257.011 648.421 257.763C682.063 258.14 715.367 264.157 746.654 279.201C770.876 290.86 791.398 307.784 805.527 332.982C819.993 358.933 824.03 387.892 822.348 417.604C821.002 443.554 814.611 468.001 800.818 489.438C798.463 494.704 794.089 499.969 789.379 506.362Z" fill="#8B3FFD"/>
<path d="M189.213 636.491C189.213 625.208 189.213 613.549 189.213 602.266C189.213 598.505 190.223 597.001 193.923 597.001C214.445 597.001 234.629 597.001 255.15 597.001C258.515 597.001 259.86 598.505 259.86 602.266C259.86 624.833 259.86 647.398 259.86 669.964C259.86 674.101 258.851 675.981 254.814 675.981C234.629 675.981 214.444 675.981 194.26 675.981C190.223 675.981 189.213 674.101 189.213 669.964C189.213 659.056 189.213 647.774 189.213 636.491Z" fill="#8B3FFD"/>
<path d="M364.487 522.534C364.487 533.817 364.487 544.723 364.487 556.007C364.487 560.52 363.141 562.4 359.104 562.4C339.255 562.4 319.407 562.4 299.558 562.4C295.185 562.4 294.176 560.52 294.176 556.007C294.176 533.817 294.176 511.627 294.176 489.437C294.176 485.301 295.185 483.797 299.222 483.797C319.407 483.797 339.592 483.797 359.777 483.797C363.814 483.797 364.823 485.301 364.823 489.437C364.15 500.345 364.487 511.252 364.487 522.534Z" fill="#8B3FFD"/>
<path d="M293.839 636.867C293.839 625.584 293.839 614.678 293.839 603.395C293.839 598.881 294.848 597.001 299.222 597.001C319.07 597.378 338.918 597.001 358.767 597.001C362.804 597.001 364.486 598.129 364.486 603.018C364.15 625.208 364.15 647.398 364.486 669.587C364.486 674.476 362.804 675.604 358.767 675.604C339.255 675.604 319.407 675.604 299.894 675.604C294.176 675.604 294.176 675.229 293.839 669.211C293.839 658.304 293.839 647.774 293.839 636.867Z" fill="#8B3FFD"/>
<path d="M277.691 405.569C277.691 416.852 277.691 427.759 277.691 439.041C277.691 443.554 276.682 445.435 272.308 445.435C252.795 445.059 232.947 445.435 213.436 445.435C209.399 445.435 207.716 444.307 207.716 439.417C208.053 416.851 207.716 394.286 207.716 371.72C207.716 367.959 208.725 366.455 212.426 366.455C232.61 366.455 252.795 366.455 272.98 366.455C277.017 366.455 278.027 368.336 278.027 372.096C277.691 383.003 277.691 394.286 277.691 405.569Z" fill="#8B3FFD"/>
<path d="M259.525 749.32C259.525 760.602 259.525 771.509 259.525 782.792C259.525 786.929 258.515 788.81 254.478 788.433C234.293 788.433 214.108 788.433 193.923 788.433C190.223 788.433 188.877 787.305 188.877 782.792C188.877 760.602 189.214 738.412 188.877 716.223C188.877 711.334 190.895 710.205 194.597 710.205C214.108 710.205 233.957 710.205 253.469 710.205C259.188 710.205 259.188 710.582 259.188 716.975C259.525 727.506 259.525 738.412 259.525 749.32Z" fill="#8B3FFD"/>
<path d="M328.49 788.433C318.734 788.433 308.978 788.433 299.558 788.433C295.185 788.433 294.176 786.928 294.176 782.415C294.512 760.602 294.512 738.412 294.176 716.599C294.176 712.086 295.521 710.205 299.558 710.205C319.407 710.205 339.255 710.205 359.104 710.205C362.468 710.205 364.487 710.957 364.487 715.471C364.487 738.037 364.487 760.602 364.487 783.168C364.487 786.928 363.477 788.433 359.777 788.433C349.348 788.433 338.919 788.433 328.49 788.433Z" fill="#8B3FFD"/>
<path d="M171.398 710.205C181.491 710.205 191.247 710.205 201.34 710.205C205.04 710.205 206.386 711.334 206.386 715.847C206.386 738.412 206.386 760.978 206.386 783.543C206.386 787.681 205.04 788.81 201.676 788.433C181.491 788.433 161.306 788.433 141.121 788.433C137.757 788.433 136.411 787.305 136.411 783.543C136.411 760.978 136.411 738.412 136.411 715.847C136.411 711.334 137.757 710.205 141.457 710.205C151.55 710.205 161.642 710.205 171.398 710.205Z" fill="#8B3FFD"/>
<path d="M613.434 617.31C613.434 604.899 613.434 592.112 613.434 579.701C613.434 576.316 614.106 574.06 617.807 574.06C632.946 574.811 648.421 572.555 663.559 575.563C679.371 578.948 691.818 587.223 695.855 606.028C700.565 628.969 692.828 650.406 670.624 657.552C665.915 659.057 661.204 660.561 656.495 660.561C644.047 660.561 631.263 660.561 618.817 660.937C615.115 660.937 613.434 659.809 613.77 655.296C613.77 642.509 613.434 629.721 613.434 617.31Z" fill="white"/>
<path d="M613.434 421.364C613.434 411.211 613.434 401.056 613.434 390.901C613.434 387.516 613.77 384.883 617.807 384.883C631.937 385.259 646.402 383.755 660.195 387.893C681.389 393.91 691.146 418.356 681.053 440.169C678.361 446.187 673.652 450.324 668.269 452.957C661.541 456.342 654.476 457.47 647.075 457.846C637.656 458.222 628.236 457.846 618.817 458.222C614.443 458.222 613.434 456.342 613.434 451.829C613.769 441.674 613.434 431.519 613.434 421.364Z" fill="white"/>
<path d="M1550.35 742.925C1550.68 741.045 1549.67 738.037 1553.04 738.037C1556.07 738.037 1558.42 739.165 1558.42 743.302C1558.42 746.311 1556.07 748.567 1553.04 748.567C1550.68 748.192 1550.35 747.439 1550.35 742.925Z" fill="white"/>
<path d="M789.379 506.362C800.818 515.389 810.574 525.167 818.983 536.826C834.795 559.391 842.869 584.966 844.215 613.173C845.561 641.004 842.869 667.707 832.44 693.281C821.675 720.36 804.181 740.669 781.641 755.713C758.093 771.509 732.189 779.783 704.939 784.672C683.072 788.433 661.204 789.562 639.001 789.562C587.53 789.562 536.395 789.938 484.923 789.562C458.346 789.185 431.77 788.81 405.192 788.81C401.155 788.81 399.474 787.681 399.474 782.792C399.809 760.978 399.474 738.789 399.474 716.975C399.474 710.582 399.474 710.582 405.192 710.582C423.696 710.582 442.198 710.582 460.701 710.582C467.429 710.582 467.429 710.582 467.429 703.436C467.429 696.666 467.429 690.272 467.429 683.502C467.429 676.733 467.429 676.357 461.374 676.357C443.544 676.357 425.714 676.357 408.22 676.357C398.128 676.357 399.137 677.109 399.137 666.202C399.137 645.893 399.137 625.961 399.137 605.651C399.137 597.753 399.137 597.753 405.865 597.753C424.031 597.753 442.535 597.753 460.701 597.753C467.429 597.753 467.429 597.753 467.429 590.608C467.429 582.709 467.093 574.811 467.429 567.29C467.766 562.4 465.747 561.272 461.71 561.272C443.544 561.272 425.714 561.272 407.548 561.272C398.128 561.272 398.8 562.025 398.8 551.87C398.8 531.185 398.8 510.499 398.8 489.814C398.8 483.044 398.8 483.044 405.192 483.044C423.696 483.044 442.198 483.044 460.701 483.044C467.093 483.044 467.092 483.044 467.092 475.522C467.092 468.752 467.092 461.607 467.092 454.837C467.092 446.564 467.093 446.187 459.692 446.187C442.535 446.187 425.377 446.187 408.22 446.187C406.538 446.187 404.856 446.187 403.511 446.187C400.146 446.563 398.8 444.682 398.8 440.922C398.8 431.144 398.8 420.989 398.8 411.21C398.8 399.551 398.8 387.893 398.8 375.858C398.8 366.455 398.464 367.583 406.874 367.208C424.705 367.208 442.535 367.208 460.029 367.208C467.429 367.208 467.092 367.959 467.092 359.685C467.092 354.044 467.092 348.402 467.092 342.385C467.092 335.991 466.757 335.991 461.037 335.991C443.881 335.991 426.723 335.991 409.566 335.991C395.437 335.991 397.792 337.496 397.455 322.828C397.455 304.023 397.455 284.842 397.455 266.038C397.455 257.764 397.455 257.387 404.856 257.387C421.677 257.387 438.161 257.387 454.982 257.387C519.573 257.387 584.166 257.011 648.421 257.763C682.063 258.14 715.367 264.157 746.654 279.201C770.876 290.86 791.398 307.784 805.527 332.982C819.993 358.933 824.03 387.892 822.348 417.604C821.002 443.554 814.611 468.001 800.818 489.438C798.463 494.704 794.089 499.969 789.379 506.362Z" fill="#8B3FFD"/>
<path d="M189.213 636.491C189.213 625.208 189.213 613.549 189.213 602.266C189.213 598.505 190.223 597.001 193.923 597.001C214.445 597.001 234.629 597.001 255.15 597.001C258.515 597.001 259.86 598.505 259.86 602.266C259.86 624.833 259.86 647.398 259.86 669.964C259.86 674.101 258.851 675.981 254.814 675.981C234.629 675.981 214.444 675.981 194.26 675.981C190.223 675.981 189.213 674.101 189.213 669.964C189.213 659.056 189.213 647.774 189.213 636.491Z" fill="#8B3FFD"/>
<path d="M364.487 522.534C364.487 533.817 364.487 544.723 364.487 556.007C364.487 560.52 363.141 562.4 359.104 562.4C339.255 562.4 319.407 562.4 299.558 562.4C295.185 562.4 294.176 560.52 294.176 556.007C294.176 533.817 294.176 511.627 294.176 489.437C294.176 485.301 295.185 483.797 299.222 483.797C319.407 483.797 339.592 483.797 359.777 483.797C363.814 483.797 364.823 485.301 364.823 489.437C364.15 500.345 364.487 511.252 364.487 522.534Z" fill="#8B3FFD"/>
<path d="M293.839 636.867C293.839 625.584 293.839 614.678 293.839 603.395C293.839 598.881 294.848 597.001 299.222 597.001C319.07 597.378 338.918 597.001 358.767 597.001C362.804 597.001 364.486 598.129 364.486 603.018C364.15 625.208 364.15 647.398 364.486 669.587C364.486 674.476 362.804 675.604 358.767 675.604C339.255 675.604 319.407 675.604 299.894 675.604C294.176 675.604 294.176 675.229 293.839 669.211C293.839 658.304 293.839 647.774 293.839 636.867Z" fill="#8B3FFD"/>
<path d="M277.691 405.569C277.691 416.852 277.691 427.759 277.691 439.041C277.691 443.554 276.682 445.435 272.308 445.435C252.795 445.059 232.947 445.435 213.436 445.435C209.399 445.435 207.716 444.307 207.716 439.417C208.053 416.851 207.716 394.286 207.716 371.72C207.716 367.959 208.725 366.455 212.426 366.455C232.61 366.455 252.795 366.455 272.98 366.455C277.017 366.455 278.027 368.336 278.027 372.096C277.691 383.003 277.691 394.286 277.691 405.569Z" fill="#8B3FFD"/>
<path d="M259.525 749.32C259.525 760.602 259.525 771.509 259.525 782.792C259.525 786.929 258.515 788.81 254.478 788.433C234.293 788.433 214.108 788.433 193.923 788.433C190.223 788.433 188.877 787.305 188.877 782.792C188.877 760.602 189.214 738.412 188.877 716.223C188.877 711.334 190.895 710.205 194.597 710.205C214.108 710.205 233.957 710.205 253.469 710.205C259.188 710.205 259.188 710.582 259.188 716.975C259.525 727.506 259.525 738.412 259.525 749.32Z" fill="#8B3FFD"/>
<path d="M328.49 788.433C318.734 788.433 308.978 788.433 299.558 788.433C295.185 788.433 294.176 786.928 294.176 782.415C294.512 760.602 294.512 738.412 294.176 716.599C294.176 712.086 295.521 710.205 299.558 710.205C319.407 710.205 339.255 710.205 359.104 710.205C362.468 710.205 364.487 710.957 364.487 715.471C364.487 738.037 364.487 760.602 364.487 783.168C364.487 786.928 363.477 788.433 359.777 788.433C349.348 788.433 338.919 788.433 328.49 788.433Z" fill="#8B3FFD"/>
<path d="M171.398 710.205C181.491 710.205 191.247 710.205 201.34 710.205C205.04 710.205 206.386 711.334 206.386 715.847C206.386 738.412 206.386 760.978 206.386 783.543C206.386 787.681 205.04 788.81 201.676 788.433C181.491 788.433 161.306 788.433 141.121 788.433C137.757 788.433 136.411 787.305 136.411 783.543C136.411 760.978 136.411 738.412 136.411 715.847C136.411 711.334 137.757 710.205 141.457 710.205C151.55 710.205 161.642 710.205 171.398 710.205Z" fill="#8B3FFD"/>
<path d="M613.434 617.31C613.434 604.899 613.434 592.112 613.434 579.701C613.434 576.316 614.106 574.06 617.807 574.06C632.946 574.811 648.421 572.555 663.559 575.563C679.371 578.948 691.818 587.223 695.855 606.028C700.565 628.969 692.828 650.406 670.624 657.552C665.915 659.057 661.204 660.561 656.495 660.561C644.047 660.561 631.263 660.561 618.817 660.937C615.115 660.937 613.434 659.809 613.77 655.296C613.77 642.509 613.434 629.721 613.434 617.31Z" fill="white"/>
<path d="M613.434 421.364C613.434 411.211 613.434 401.056 613.434 390.901C613.434 387.516 613.77 384.883 617.807 384.883C631.937 385.259 646.402 383.755 660.195 387.893C681.389 393.91 691.146 418.356 681.053 440.169C678.361 446.187 673.652 450.324 668.269 452.957C661.541 456.342 654.476 457.47 647.075 457.846C637.656 458.222 628.236 457.846 618.817 458.222C614.443 458.222 613.434 456.342 613.434 451.829C613.769 441.674 613.434 431.519 613.434 421.364Z" fill="white"/>
<path d="M789.379 506.362C800.818 515.389 810.574 525.167 818.983 536.826C834.795 559.391 842.869 584.966 844.215 613.173C845.561 641.004 842.869 667.707 832.44 693.281C821.675 720.36 804.181 740.669 781.641 755.713C758.093 771.509 732.189 779.783 704.939 784.672C683.072 788.433 661.204 789.562 639.001 789.562C587.53 789.562 536.395 789.938 484.923 789.562C458.346 789.185 431.77 788.81 405.192 788.81C401.155 788.81 399.474 787.681 399.474 782.792C399.809 760.978 399.474 738.789 399.474 716.975C399.474 710.582 399.474 710.582 405.192 710.582C423.696 710.582 442.198 710.582 460.701 710.582C467.429 710.582 467.429 710.582 467.429 703.436C467.429 696.666 467.429 690.272 467.429 683.502C467.429 676.733 467.429 676.357 461.374 676.357C443.544 676.357 425.714 676.357 408.22 676.357C398.128 676.357 399.137 677.109 399.137 666.202C399.137 645.893 399.137 625.961 399.137 605.651C399.137 597.753 399.137 597.753 405.865 597.753C424.031 597.753 442.535 597.753 460.701 597.753C467.429 597.753 467.429 597.753 467.429 590.608C467.429 582.709 467.093 574.811 467.429 567.29C467.766 562.4 465.747 561.272 461.71 561.272C443.544 561.272 425.714 561.272 407.548 561.272C398.128 561.272 398.8 562.025 398.8 551.87C398.8 531.185 398.8 510.499 398.8 489.814C398.8 483.044 398.8 483.044 405.192 483.044C423.696 483.044 442.198 483.044 460.701 483.044C467.093 483.044 467.092 483.044 467.092 475.522C467.092 468.752 467.092 461.607 467.092 454.837C467.092 446.564 467.093 446.187 459.692 446.187C442.535 446.187 425.377 446.187 408.22 446.187C406.538 446.187 404.856 446.187 403.511 446.187C400.146 446.563 398.8 444.682 398.8 440.922C398.8 431.144 398.8 420.989 398.8 411.21C398.8 399.551 398.8 387.893 398.8 375.858C398.8 366.455 398.464 367.583 406.874 367.208C424.705 367.208 442.535 367.208 460.029 367.208C467.429 367.208 467.092 367.959 467.092 359.685C467.092 354.044 467.092 348.402 467.092 342.385C467.092 335.991 466.757 335.991 461.037 335.991C443.881 335.991 426.723 335.991 409.566 335.991C395.437 335.991 397.792 337.496 397.455 322.828C397.455 304.023 397.455 284.842 397.455 266.038C397.455 257.764 397.455 257.387 404.856 257.387C421.677 257.387 438.161 257.387 454.982 257.387C519.573 257.387 584.166 257.011 648.421 257.763C682.063 258.14 715.367 264.157 746.654 279.201C770.876 290.86 791.398 307.784 805.527 332.982C819.993 358.933 824.03 387.892 822.348 417.604C821.002 443.554 814.611 468.001 800.818 489.438C798.463 494.704 794.089 499.969 789.379 506.362Z" fill="#8B3FFD"/>
<path d="M189.213 636.491C189.213 625.208 189.213 613.549 189.213 602.266C189.213 598.505 190.223 597.001 193.923 597.001C214.445 597.001 234.629 597.001 255.15 597.001C258.515 597.001 259.86 598.505 259.86 602.266C259.86 624.833 259.86 647.398 259.86 669.964C259.86 674.101 258.851 675.981 254.814 675.981C234.629 675.981 214.444 675.981 194.26 675.981C190.223 675.981 189.213 674.101 189.213 669.964C189.213 659.056 189.213 647.774 189.213 636.491Z" fill="#8B3FFD"/>
<path d="M364.487 522.534C364.487 533.817 364.487 544.723 364.487 556.007C364.487 560.52 363.141 562.4 359.104 562.4C339.255 562.4 319.407 562.4 299.558 562.4C295.185 562.4 294.176 560.52 294.176 556.007C294.176 533.817 294.176 511.627 294.176 489.437C294.176 485.301 295.185 483.797 299.222 483.797C319.407 483.797 339.592 483.797 359.777 483.797C363.814 483.797 364.823 485.301 364.823 489.437C364.15 500.345 364.487 511.252 364.487 522.534Z" fill="#8B3FFD"/>
<path d="M293.839 636.867C293.839 625.584 293.839 614.678 293.839 603.395C293.839 598.881 294.848 597.001 299.222 597.001C319.07 597.378 338.918 597.001 358.767 597.001C362.804 597.001 364.486 598.129 364.486 603.018C364.15 625.208 364.15 647.398 364.486 669.587C364.486 674.476 362.804 675.604 358.767 675.604C339.255 675.604 319.407 675.604 299.894 675.604C294.176 675.604 294.176 675.229 293.839 669.211C293.839 658.304 293.839 647.774 293.839 636.867Z" fill="#8B3FFD"/>
<path d="M277.691 405.569C277.691 416.852 277.691 427.759 277.691 439.041C277.691 443.554 276.682 445.435 272.308 445.435C252.795 445.059 232.947 445.435 213.436 445.435C209.399 445.435 207.716 444.307 207.716 439.417C208.053 416.851 207.716 394.286 207.716 371.72C207.716 367.959 208.725 366.455 212.426 366.455C232.61 366.455 252.795 366.455 272.98 366.455C277.017 366.455 278.027 368.336 278.027 372.096C277.691 383.003 277.691 394.286 277.691 405.569Z" fill="#8B3FFD"/>
<path d="M259.525 749.32C259.525 760.602 259.525 771.509 259.525 782.792C259.525 786.929 258.515 788.81 254.478 788.433C234.293 788.433 214.108 788.433 193.923 788.433C190.223 788.433 188.877 787.305 188.877 782.792C188.877 760.602 189.214 738.412 188.877 716.223C188.877 711.334 190.895 710.205 194.597 710.205C214.108 710.205 233.957 710.205 253.469 710.205C259.188 710.205 259.188 710.582 259.188 716.975C259.525 727.506 259.525 738.412 259.525 749.32Z" fill="#8B3FFD"/>
<path d="M328.49 788.433C318.734 788.433 308.978 788.433 299.558 788.433C295.185 788.433 294.176 786.928 294.176 782.415C294.512 760.602 294.512 738.412 294.176 716.599C294.176 712.086 295.521 710.205 299.558 710.205C319.407 710.205 339.255 710.205 359.104 710.205C362.468 710.205 364.487 710.957 364.487 715.471C364.487 738.037 364.487 760.602 364.487 783.168C364.487 786.928 363.477 788.433 359.777 788.433C349.348 788.433 338.919 788.433 328.49 788.433Z" fill="#8B3FFD"/>
<path d="M171.398 710.205C181.491 710.205 191.247 710.205 201.34 710.205C205.04 710.205 206.386 711.334 206.386 715.847C206.386 738.412 206.386 760.978 206.386 783.543C206.386 787.681 205.04 788.81 201.676 788.433C181.491 788.433 161.306 788.433 141.121 788.433C137.757 788.433 136.411 787.305 136.411 783.543C136.411 760.978 136.411 738.412 136.411 715.847C136.411 711.334 137.757 710.205 141.457 710.205C151.55 710.205 161.642 710.205 171.398 710.205Z" fill="#8B3FFD"/>
<path d="M613.434 617.31C613.434 604.899 613.434 592.112 613.434 579.701C613.434 576.316 614.106 574.06 617.807 574.06C632.946 574.811 648.421 572.555 663.559 575.563C679.371 578.948 691.818 587.223 695.855 606.028C700.565 628.969 692.828 650.406 670.624 657.552C665.915 659.057 661.204 660.561 656.495 660.561C644.047 660.561 631.263 660.561 618.817 660.937C615.115 660.937 613.434 659.809 613.77 655.296C613.77 642.509 613.434 629.721 613.434 617.31Z" fill="white"/>
<path d="M613.434 421.364C613.434 411.211 613.434 401.056 613.434 390.901C613.434 387.516 613.77 384.883 617.807 384.883C631.937 385.259 646.402 383.755 660.195 387.893C681.389 393.91 691.146 418.356 681.053 440.169C678.361 446.187 673.652 450.324 668.269 452.957C661.541 456.342 654.476 457.47 647.075 457.846C637.656 458.222 628.236 457.846 618.817 458.222C614.443 458.222 613.434 456.342 613.434 451.829C613.769 441.674 613.434 431.519 613.434 421.364Z" fill="white"/>
<mask id="path-65-outside-1_0_1" maskUnits="userSpaceOnUse" x="931" y="318" width="1058" height="427" fill="black">
<rect fill="white" x="931" y="318" width="1058" height="427"/>
<path d="M939.494 472V319.273H992.889C1003.53 319.273 1012.3 321.112 1019.21 324.791C1026.12 328.42 1031.27 333.317 1034.65 339.482C1038.03 345.597 1039.72 352.384 1039.72 359.841C1039.72 366.403 1038.55 371.822 1036.22 376.098C1033.93 380.374 1030.9 383.754 1027.12 386.24C1023.39 388.726 1019.34 390.565 1014.96 391.759V393.25C1019.64 393.548 1024.33 395.189 1029.06 398.172C1033.78 401.155 1037.73 405.43 1040.91 410.999C1044.1 416.567 1045.69 423.378 1045.69 431.432C1045.69 439.088 1043.95 445.974 1040.47 452.089C1036.99 458.204 1031.49 463.051 1023.99 466.631C1016.48 470.21 1006.71 472 994.679 472H939.494ZM957.989 455.594H994.679C1006.76 455.594 1015.34 453.257 1020.41 448.584C1025.53 443.861 1028.09 438.143 1028.09 431.432C1028.09 426.261 1026.77 421.489 1024.14 417.114C1021.5 412.689 1017.75 409.159 1012.88 406.524C1008 403.839 1002.24 402.497 995.574 402.497H957.989V455.594ZM957.989 386.389H992.293C997.861 386.389 1002.88 385.295 1007.36 383.108C1011.88 380.92 1015.46 377.838 1018.1 373.861C1020.78 369.884 1022.12 365.21 1022.12 359.841C1022.12 353.129 1019.79 347.437 1015.11 342.763C1010.44 338.04 1003.03 335.679 992.889 335.679H957.989V386.389ZM1128.54 472H1109.15L1165.23 319.273H1184.32L1240.4 472H1221.01L1175.37 343.435H1174.18L1128.54 472ZM1135.7 412.341H1213.85V428.747H1135.7V412.341ZM1410.62 319.273H1429.11V420.395C1429.11 430.835 1426.65 440.157 1421.73 448.36C1416.86 456.513 1409.97 462.952 1401.07 467.675C1392.17 472.348 1381.73 474.685 1369.75 474.685C1357.77 474.685 1347.33 472.348 1338.43 467.675C1329.53 462.952 1322.62 456.513 1317.7 448.36C1312.83 440.157 1310.39 430.835 1310.39 420.395V319.273H1328.88V418.903C1328.88 426.361 1330.53 432.998 1333.81 438.815C1337.09 444.582 1341.76 449.131 1347.83 452.462C1353.94 455.743 1361.25 457.384 1369.75 457.384C1378.25 457.384 1385.56 455.743 1391.68 452.462C1397.79 449.131 1402.46 444.582 1405.7 438.815C1408.98 432.998 1410.62 426.361 1410.62 418.903V319.273ZM1507.17 472V458.577L1589.5 335.679H1506.28V319.273H1611.58V332.696L1529.25 455.594H1612.47V472H1507.17ZM1695.96 472H1676.57L1732.65 319.273H1751.74L1807.82 472H1788.43L1742.79 343.435H1741.6L1695.96 472ZM1703.12 412.341H1781.27V428.747H1703.12V412.341ZM1877.81 472V319.273H1929.41C1941.35 319.273 1951.14 321.311 1958.8 325.388C1966.45 329.415 1972.12 334.958 1975.8 342.018C1979.48 349.077 1981.32 357.107 1981.32 366.105C1981.32 375.104 1979.48 383.083 1975.8 390.043C1972.12 397.004 1966.48 402.472 1958.87 406.45C1951.26 410.377 1941.54 412.341 1929.71 412.341H1887.95V395.636H1929.12C1937.27 395.636 1943.83 394.443 1948.8 392.057C1953.82 389.67 1957.45 386.29 1959.69 381.915C1961.98 377.49 1963.12 372.22 1963.12 366.105C1963.12 359.99 1961.98 354.646 1959.69 350.072C1957.4 345.498 1953.75 341.968 1948.73 339.482C1943.71 336.947 1937.07 335.679 1928.82 335.679H1896.3V472H1877.81ZM1949.7 403.392L1987.28 472H1965.81L1928.82 403.392H1949.7ZM1023.02 626.455C1022.12 618.898 1018.49 613.031 1012.13 608.855C1005.77 604.679 997.96 602.591 988.713 602.591C981.952 602.591 976.036 603.685 970.964 605.872C965.943 608.06 962.016 611.067 959.182 614.896C956.398 618.724 955.006 623.074 955.006 627.946C955.006 632.023 955.975 635.528 957.914 638.461C959.903 641.344 962.438 643.756 965.521 645.695C968.603 647.584 971.835 649.15 975.215 650.393C978.596 651.586 981.703 652.555 984.537 653.301L1000.05 657.477C1004.03 658.521 1008.45 659.963 1013.32 661.803C1018.24 663.642 1022.94 666.153 1027.42 669.335C1031.94 672.467 1035.67 676.494 1038.6 681.415C1041.54 686.337 1043 692.378 1043 699.537C1043 707.79 1040.84 715.247 1036.51 721.909C1032.24 728.571 1025.98 733.866 1017.72 737.793C1009.52 741.721 999.551 743.685 987.818 743.685C976.881 743.685 967.41 741.92 959.406 738.39C951.451 734.86 945.187 729.938 940.613 723.624C936.089 717.31 933.528 709.977 932.932 701.625H952.023C952.52 707.392 954.459 712.165 957.839 715.943C961.27 719.672 965.595 722.456 970.815 724.295C976.085 726.085 981.753 726.98 987.818 726.98C994.878 726.98 1001.22 725.837 1006.83 723.55C1012.45 721.213 1016.9 717.982 1020.18 713.855C1023.46 709.679 1025.11 704.807 1025.11 699.239C1025.11 694.168 1023.69 690.041 1020.85 686.859C1018.02 683.678 1014.29 681.092 1009.67 679.104C1005.04 677.115 1000.05 675.375 994.679 673.884L975.886 668.514C963.955 665.084 954.509 660.187 947.548 653.823C940.588 647.46 937.108 639.132 937.108 628.841C937.108 620.29 939.42 612.832 944.043 606.469C948.717 600.055 954.981 595.084 962.836 591.554C970.741 587.974 979.565 586.185 989.31 586.185C999.153 586.185 1007.9 587.95 1015.56 591.479C1023.22 594.96 1029.28 599.732 1033.76 605.798C1038.28 611.863 1040.67 618.749 1040.91 626.455H1023.02ZM1119.61 588.273H1141.68L1193.59 715.048H1195.38L1247.28 588.273H1269.35V741H1252.05V624.963H1250.56L1202.83 741H1186.13L1138.4 624.963H1136.91V741H1119.61V588.273ZM1358.9 741H1339.51L1395.59 588.273H1414.68L1470.76 741H1451.37L1405.73 612.435H1404.54L1358.9 741ZM1366.06 681.341H1444.21V697.747H1366.06V681.341ZM1540.75 741V588.273H1592.36C1604.29 588.273 1614.08 590.311 1621.74 594.388C1629.39 598.415 1635.06 603.958 1638.74 611.018C1642.42 618.077 1644.26 626.107 1644.26 635.105C1644.26 644.104 1642.42 652.083 1638.74 659.043C1635.06 666.004 1629.42 671.472 1621.81 675.45C1614.21 679.377 1604.49 681.341 1592.65 681.341H1550.89V664.636H1592.06C1600.21 664.636 1606.77 663.443 1611.74 661.057C1616.77 658.67 1620.4 655.29 1622.63 650.915C1624.92 646.49 1626.06 641.22 1626.06 635.105C1626.06 628.99 1624.92 623.646 1622.63 619.072C1620.35 614.498 1616.69 610.968 1611.67 608.482C1606.65 605.947 1600.01 604.679 1591.76 604.679H1559.24V741H1540.75ZM1612.64 672.392L1650.22 741H1628.75L1591.76 672.392H1612.64ZM1712.92 604.679V588.273H1827.47V604.679H1779.44V741H1760.95V604.679H1712.92Z"/>
</mask>
<path d="M939.494 472V319.273H992.889C1003.53 319.273 1012.3 321.112 1019.21 324.791C1026.12 328.42 1031.27 333.317 1034.65 339.482C1038.03 345.597 1039.72 352.384 1039.72 359.841C1039.72 366.403 1038.55 371.822 1036.22 376.098C1033.93 380.374 1030.9 383.754 1027.12 386.24C1023.39 388.726 1019.34 390.565 1014.96 391.759V393.25C1019.64 393.548 1024.33 395.189 1029.06 398.172C1033.78 401.155 1037.73 405.43 1040.91 410.999C1044.1 416.567 1045.69 423.378 1045.69 431.432C1045.69 439.088 1043.95 445.974 1040.47 452.089C1036.99 458.204 1031.49 463.051 1023.99 466.631C1016.48 470.21 1006.71 472 994.679 472H939.494ZM957.989 455.594H994.679C1006.76 455.594 1015.34 453.257 1020.41 448.584C1025.53 443.861 1028.09 438.143 1028.09 431.432C1028.09 426.261 1026.77 421.489 1024.14 417.114C1021.5 412.689 1017.75 409.159 1012.88 406.524C1008 403.839 1002.24 402.497 995.574 402.497H957.989V455.594ZM957.989 386.389H992.293C997.861 386.389 1002.88 385.295 1007.36 383.108C1011.88 380.92 1015.46 377.838 1018.1 373.861C1020.78 369.884 1022.12 365.21 1022.12 359.841C1022.12 353.129 1019.79 347.437 1015.11 342.763C1010.44 338.04 1003.03 335.679 992.889 335.679H957.989V386.389ZM1128.54 472H1109.15L1165.23 319.273H1184.32L1240.4 472H1221.01L1175.37 343.435H1174.18L1128.54 472ZM1135.7 412.341H1213.85V428.747H1135.7V412.341ZM1410.62 319.273H1429.11V420.395C1429.11 430.835 1426.65 440.157 1421.73 448.36C1416.86 456.513 1409.97 462.952 1401.07 467.675C1392.17 472.348 1381.73 474.685 1369.75 474.685C1357.77 474.685 1347.33 472.348 1338.43 467.675C1329.53 462.952 1322.62 456.513 1317.7 448.36C1312.83 440.157 1310.39 430.835 1310.39 420.395V319.273H1328.88V418.903C1328.88 426.361 1330.53 432.998 1333.81 438.815C1337.09 444.582 1341.76 449.131 1347.83 452.462C1353.94 455.743 1361.25 457.384 1369.75 457.384C1378.25 457.384 1385.56 455.743 1391.68 452.462C1397.79 449.131 1402.46 444.582 1405.7 438.815C1408.98 432.998 1410.62 426.361 1410.62 418.903V319.273ZM1507.17 472V458.577L1589.5 335.679H1506.28V319.273H1611.58V332.696L1529.25 455.594H1612.47V472H1507.17ZM1695.96 472H1676.57L1732.65 319.273H1751.74L1807.82 472H1788.43L1742.79 343.435H1741.6L1695.96 472ZM1703.12 412.341H1781.27V428.747H1703.12V412.341ZM1877.81 472V319.273H1929.41C1941.35 319.273 1951.14 321.311 1958.8 325.388C1966.45 329.415 1972.12 334.958 1975.8 342.018C1979.48 349.077 1981.32 357.107 1981.32 366.105C1981.32 375.104 1979.48 383.083 1975.8 390.043C1972.12 397.004 1966.48 402.472 1958.87 406.45C1951.26 410.377 1941.54 412.341 1929.71 412.341H1887.95V395.636H1929.12C1937.27 395.636 1943.83 394.443 1948.8 392.057C1953.82 389.67 1957.45 386.29 1959.69 381.915C1961.98 377.49 1963.12 372.22 1963.12 366.105C1963.12 359.99 1961.98 354.646 1959.69 350.072C1957.4 345.498 1953.75 341.968 1948.73 339.482C1943.71 336.947 1937.07 335.679 1928.82 335.679H1896.3V472H1877.81ZM1949.7 403.392L1987.28 472H1965.81L1928.82 403.392H1949.7ZM1023.02 626.455C1022.12 618.898 1018.49 613.031 1012.13 608.855C1005.77 604.679 997.96 602.591 988.713 602.591C981.952 602.591 976.036 603.685 970.964 605.872C965.943 608.06 962.016 611.067 959.182 614.896C956.398 618.724 955.006 623.074 955.006 627.946C955.006 632.023 955.975 635.528 957.914 638.461C959.903 641.344 962.438 643.756 965.521 645.695C968.603 647.584 971.835 649.15 975.215 650.393C978.596 651.586 981.703 652.555 984.537 653.301L1000.05 657.477C1004.03 658.521 1008.45 659.963 1013.32 661.803C1018.24 663.642 1022.94 666.153 1027.42 669.335C1031.94 672.467 1035.67 676.494 1038.6 681.415C1041.54 686.337 1043 692.378 1043 699.537C1043 707.79 1040.84 715.247 1036.51 721.909C1032.24 728.571 1025.98 733.866 1017.72 737.793C1009.52 741.721 999.551 743.685 987.818 743.685C976.881 743.685 967.41 741.92 959.406 738.39C951.451 734.86 945.187 729.938 940.613 723.624C936.089 717.31 933.528 709.977 932.932 701.625H952.023C952.52 707.392 954.459 712.165 957.839 715.943C961.27 719.672 965.595 722.456 970.815 724.295C976.085 726.085 981.753 726.98 987.818 726.98C994.878 726.98 1001.22 725.837 1006.83 723.55C1012.45 721.213 1016.9 717.982 1020.18 713.855C1023.46 709.679 1025.11 704.807 1025.11 699.239C1025.11 694.168 1023.69 690.041 1020.85 686.859C1018.02 683.678 1014.29 681.092 1009.67 679.104C1005.04 677.115 1000.05 675.375 994.679 673.884L975.886 668.514C963.955 665.084 954.509 660.187 947.548 653.823C940.588 647.46 937.108 639.132 937.108 628.841C937.108 620.29 939.42 612.832 944.043 606.469C948.717 600.055 954.981 595.084 962.836 591.554C970.741 587.974 979.565 586.185 989.31 586.185C999.153 586.185 1007.9 587.95 1015.56 591.479C1023.22 594.96 1029.28 599.732 1033.76 605.798C1038.28 611.863 1040.67 618.749 1040.91 626.455H1023.02ZM1119.61 588.273H1141.68L1193.59 715.048H1195.38L1247.28 588.273H1269.35V741H1252.05V624.963H1250.56L1202.83 741H1186.13L1138.4 624.963H1136.91V741H1119.61V588.273ZM1358.9 741H1339.51L1395.59 588.273H1414.68L1470.76 741H1451.37L1405.73 612.435H1404.54L1358.9 741ZM1366.06 681.341H1444.21V697.747H1366.06V681.341ZM1540.75 741V588.273H1592.36C1604.29 588.273 1614.08 590.311 1621.74 594.388C1629.39 598.415 1635.06 603.958 1638.74 611.018C1642.42 618.077 1644.26 626.107 1644.26 635.105C1644.26 644.104 1642.42 652.083 1638.74 659.043C1635.06 666.004 1629.42 671.472 1621.81 675.45C1614.21 679.377 1604.49 681.341 1592.65 681.341H1550.89V664.636H1592.06C1600.21 664.636 1606.77 663.443 1611.74 661.057C1616.77 658.67 1620.4 655.29 1622.63 650.915C1624.92 646.49 1626.06 641.22 1626.06 635.105C1626.06 628.99 1624.92 623.646 1622.63 619.072C1620.35 614.498 1616.69 610.968 1611.67 608.482C1606.65 605.947 1600.01 604.679 1591.76 604.679H1559.24V741H1540.75ZM1612.64 672.392L1650.22 741H1628.75L1591.76 672.392H1612.64ZM1712.92 604.679V588.273H1827.47V604.679H1779.44V741H1760.95V604.679H1712.92Z" fill="black"/>
<path d="M939.494 472H938.494V473H939.494V472ZM939.494 319.273V318.273H938.494V319.273H939.494ZM1019.21 324.791L1018.74 325.674L1018.75 325.677L1019.21 324.791ZM1034.65 339.482L1033.77 339.963L1033.78 339.966L1034.65 339.482ZM1036.22 376.098L1035.34 375.618L1035.33 375.626L1036.22 376.098ZM1027.12 386.24L1026.57 385.405L1026.56 385.408L1027.12 386.24ZM1014.96 391.759L1014.7 390.794L1013.96 390.995V391.759H1014.96ZM1014.96 393.25H1013.96V394.188L1014.9 394.248L1014.96 393.25ZM1029.06 398.172L1028.52 399.017L1029.06 398.172ZM1040.47 452.089L1041.34 452.583L1040.47 452.089ZM1023.99 466.631L1023.56 465.728L1023.99 466.631ZM957.989 455.594H956.989V456.594H957.989V455.594ZM1020.41 448.584L1021.08 449.319L1021.08 449.319L1020.41 448.584ZM1024.14 417.114L1023.28 417.625L1023.28 417.63L1024.14 417.114ZM1012.88 406.524L1012.39 407.4L1012.4 407.404L1012.88 406.524ZM957.989 402.497V401.497H956.989V402.497H957.989ZM957.989 386.389H956.989V387.389H957.989V386.389ZM1007.36 383.108L1006.92 382.208L1006.92 382.21L1007.36 383.108ZM1018.1 373.861L1017.27 373.301L1017.26 373.309L1018.1 373.861ZM1015.11 342.763L1014.4 343.467L1014.41 343.471L1015.11 342.763ZM957.989 335.679V334.679H956.989V335.679H957.989ZM940.494 472V319.273H938.494V472H940.494ZM939.494 320.273H992.889V318.273H939.494V320.273ZM992.889 320.273C1003.42 320.273 1012.02 322.095 1018.74 325.674L1019.68 323.908C1012.59 320.13 1003.64 318.273 992.889 318.273V320.273ZM1018.75 325.677C1025.51 329.225 1030.5 333.989 1033.77 339.963L1035.53 339.001C1032.04 332.646 1026.74 327.616 1019.68 323.906L1018.75 325.677ZM1033.78 339.966C1037.07 345.923 1038.72 352.541 1038.72 359.841H1040.72C1040.72 352.226 1038.99 345.272 1035.53 338.998L1033.78 339.966ZM1038.72 359.841C1038.72 366.292 1037.57 371.532 1035.34 375.618L1037.09 376.578C1039.53 372.113 1040.72 366.515 1040.72 359.841H1038.72ZM1035.33 375.626C1033.12 379.766 1030.2 383.017 1026.57 385.405L1027.67 387.075C1031.6 384.491 1034.74 380.981 1037.1 376.57L1035.33 375.626ZM1026.56 385.408C1022.93 387.833 1018.97 389.629 1014.7 390.794L1015.23 392.723C1019.7 391.502 1023.85 389.618 1027.67 387.072L1026.56 385.408ZM1013.96 391.759V393.25H1015.96V391.759H1013.96ZM1014.9 394.248C1019.38 394.534 1023.91 396.107 1028.52 399.017L1029.59 397.326C1024.75 394.271 1019.9 392.563 1015.03 392.252L1014.9 394.248ZM1028.52 399.017C1033.09 401.901 1036.93 406.047 1040.05 411.495L1041.78 410.502C1038.53 404.813 1034.47 400.409 1029.59 397.326L1028.52 399.017ZM1040.05 411.495C1043.12 416.878 1044.69 423.508 1044.69 431.432H1046.69C1046.69 423.248 1045.07 416.256 1041.78 410.502L1040.05 411.495ZM1044.69 431.432C1044.69 438.93 1042.99 445.643 1039.6 451.594L1041.34 452.583C1044.91 446.304 1046.69 439.246 1046.69 431.432H1044.69ZM1039.6 451.594C1036.24 457.501 1030.91 462.22 1023.56 465.728L1024.42 467.533C1032.07 463.882 1037.74 458.907 1041.34 452.583L1039.6 451.594ZM1023.56 465.728C1016.23 469.221 1006.62 471 994.679 471V473C1006.8 473 1016.73 471.199 1024.42 467.533L1023.56 465.728ZM994.679 471H939.494V473H994.679V471ZM957.989 456.594H994.679V454.594H957.989V456.594ZM994.679 456.594C1006.84 456.594 1015.73 454.252 1021.08 449.319L1019.73 447.848C1014.94 452.263 1006.68 454.594 994.679 454.594V456.594ZM1021.08 449.319C1026.4 444.415 1029.09 438.434 1029.09 431.432H1027.09C1027.09 437.852 1024.65 443.307 1019.73 447.849L1021.08 449.319ZM1029.09 431.432C1029.09 426.082 1027.72 421.13 1024.99 416.598L1023.28 417.63C1025.82 421.847 1027.09 426.441 1027.09 431.432H1029.09ZM1024.99 416.602C1022.26 412.011 1018.37 408.359 1013.35 405.645L1012.4 407.404C1017.13 409.96 1020.74 413.367 1023.28 417.625L1024.99 416.602ZM1013.36 405.648C1008.31 402.868 1002.37 401.497 995.574 401.497V403.497C1002.1 403.497 1007.69 404.811 1012.39 407.4L1013.36 405.648ZM995.574 401.497H957.989V403.497H995.574V401.497ZM956.989 402.497V455.594H958.989V402.497H956.989ZM957.989 387.389H992.293V385.389H957.989V387.389ZM992.293 387.389C997.995 387.389 1003.17 386.268 1007.8 384.006L1006.92 382.21C1002.6 384.323 997.727 385.389 992.293 385.389V387.389ZM1007.79 384.008C1012.47 381.747 1016.19 378.548 1018.93 374.413L1017.26 373.309C1014.73 377.128 1011.29 380.094 1006.92 382.208L1007.79 384.008ZM1018.92 374.42C1021.73 370.258 1023.12 365.385 1023.12 359.841H1021.12C1021.12 365.035 1019.83 369.509 1017.27 373.301L1018.92 374.42ZM1023.12 359.841C1023.12 352.869 1020.68 346.92 1015.82 342.056L1014.41 343.471C1018.89 347.953 1021.12 353.39 1021.12 359.841H1023.12ZM1015.82 342.06C1010.88 337.068 1003.16 334.679 992.889 334.679V336.679C1002.9 336.679 1009.99 339.013 1014.4 343.467L1015.82 342.06ZM992.889 334.679H957.989V336.679H992.889V334.679ZM956.989 335.679V386.389H958.989V335.679H956.989ZM1128.54 472V473H1129.25L1129.48 472.335L1128.54 472ZM1109.15 472L1108.21 471.655L1107.72 473H1109.15V472ZM1165.23 319.273V318.273H1164.53L1164.29 318.928L1165.23 319.273ZM1184.32 319.273L1185.26 318.928L1185.02 318.273H1184.32V319.273ZM1240.4 472V473H1241.83L1241.34 471.655L1240.4 472ZM1221.01 472L1220.07 472.335L1220.31 473H1221.01V472ZM1175.37 343.435L1176.32 343.1L1176.08 342.435H1175.37V343.435ZM1174.18 343.435V342.435H1173.47L1173.24 343.1L1174.18 343.435ZM1135.7 412.341V411.341H1134.7V412.341H1135.7ZM1213.85 412.341H1214.85V411.341H1213.85V412.341ZM1213.85 428.747V429.747H1214.85V428.747H1213.85ZM1135.7 428.747H1134.7V429.747H1135.7V428.747ZM1128.54 471H1109.15V473H1128.54V471ZM1110.09 472.345L1166.17 319.617L1164.29 318.928L1108.21 471.655L1110.09 472.345ZM1165.23 320.273H1184.32V318.273H1165.23V320.273ZM1183.38 319.617L1239.46 472.345L1241.34 471.655L1185.26 318.928L1183.38 319.617ZM1240.4 471H1221.01V473H1240.4V471ZM1221.95 471.665L1176.32 343.1L1174.43 343.769L1220.07 472.335L1221.95 471.665ZM1175.37 342.435H1174.18V344.435H1175.37V342.435ZM1173.24 343.1L1127.6 471.665L1129.48 472.335L1175.12 343.769L1173.24 343.1ZM1135.7 413.341H1213.85V411.341H1135.7V413.341ZM1212.85 412.341V428.747H1214.85V412.341H1212.85ZM1213.85 427.747H1135.7V429.747H1213.85V427.747ZM1136.7 428.747V412.341H1134.7V428.747H1136.7ZM1410.62 319.273V318.273H1409.62V319.273H1410.62ZM1429.11 319.273H1430.11V318.273H1429.11V319.273ZM1421.73 448.36L1420.87 447.846L1420.87 447.847L1421.73 448.36ZM1401.07 467.675L1401.54 468.56L1401.54 468.558L1401.07 467.675ZM1338.43 467.675L1337.96 468.558L1337.97 468.56L1338.43 467.675ZM1317.7 448.36L1316.84 448.871L1316.84 448.877L1317.7 448.36ZM1310.39 319.273V318.273H1309.39V319.273H1310.39ZM1328.88 319.273H1329.88V318.273H1328.88V319.273ZM1333.81 438.815L1332.94 439.306L1332.94 439.309L1333.81 438.815ZM1347.83 452.462L1347.35 453.338L1347.35 453.343L1347.83 452.462ZM1391.68 452.462L1392.15 453.343L1392.15 453.34L1391.68 452.462ZM1405.7 438.815L1404.82 438.323L1404.82 438.326L1405.7 438.815ZM1410.62 320.273H1429.11V318.273H1410.62V320.273ZM1428.11 319.273V420.395H1430.11V319.273H1428.11ZM1428.11 420.395C1428.11 430.671 1425.69 439.812 1420.87 447.846L1422.59 448.875C1427.61 440.502 1430.11 430.999 1430.11 420.395H1428.11ZM1420.87 447.847C1416.1 455.834 1409.35 462.149 1400.6 466.791L1401.54 468.558C1410.59 463.755 1417.62 457.193 1422.59 448.873L1420.87 447.847ZM1400.61 466.789C1391.88 471.374 1381.6 473.685 1369.75 473.685V475.685C1381.86 475.685 1392.47 473.322 1401.54 468.56L1400.61 466.789ZM1369.75 473.685C1357.9 473.685 1347.63 471.374 1338.9 466.789L1337.97 468.56C1347.03 473.322 1357.64 475.685 1369.75 475.685V473.685ZM1338.9 466.791C1330.15 462.148 1323.38 455.833 1318.55 447.843L1316.84 448.877C1321.86 457.194 1328.91 463.755 1337.96 468.558L1338.9 466.791ZM1318.56 447.849C1313.79 439.815 1311.39 430.673 1311.39 420.395H1309.39C1309.39 430.997 1311.87 440.499 1316.84 448.871L1318.56 447.849ZM1311.39 420.395V319.273H1309.39V420.395H1311.39ZM1310.39 320.273H1328.88V318.273H1310.39V320.273ZM1327.88 319.273V418.903H1329.88V319.273H1327.88ZM1327.88 418.903C1327.88 426.512 1329.56 433.322 1332.94 439.306L1334.68 438.323C1331.49 432.673 1329.88 426.209 1329.88 418.903H1327.88ZM1332.94 439.309C1336.31 445.244 1341.12 449.922 1347.35 453.338L1348.31 451.585C1342.4 448.339 1337.86 443.919 1334.68 438.32L1332.94 439.309ZM1347.35 453.343C1353.64 456.718 1361.12 458.384 1369.75 458.384V456.384C1361.38 456.384 1354.24 454.768 1348.3 451.58L1347.35 453.343ZM1369.75 458.384C1378.38 458.384 1385.86 456.718 1392.15 453.343L1391.2 451.58C1385.26 454.768 1378.12 456.384 1369.75 456.384V458.384ZM1392.15 453.34C1398.43 449.924 1403.24 445.244 1406.57 439.303L1404.82 438.326C1401.69 443.92 1397.16 448.338 1391.2 451.583L1392.15 453.34ZM1406.57 439.306C1409.94 433.322 1411.62 426.512 1411.62 418.903H1409.62C1409.62 426.209 1408.01 432.673 1404.82 438.323L1406.57 439.306ZM1411.62 418.903V319.273H1409.62V418.903H1411.62ZM1507.17 472H1506.17V473H1507.17V472ZM1507.17 458.577L1506.34 458.02L1506.17 458.273V458.577H1507.17ZM1589.5 335.679L1590.33 336.236L1591.38 334.679H1589.5V335.679ZM1506.28 335.679H1505.28V336.679H1506.28V335.679ZM1506.28 319.273V318.273H1505.28V319.273H1506.28ZM1611.58 319.273H1612.58V318.273H1611.58V319.273ZM1611.58 332.696L1612.41 333.253L1612.58 333V332.696H1611.58ZM1529.25 455.594L1528.42 455.037L1527.37 456.594H1529.25V455.594ZM1612.47 455.594H1613.47V454.594H1612.47V455.594ZM1612.47 472V473H1613.47V472H1612.47ZM1508.17 472V458.577H1506.17V472H1508.17ZM1508 459.133L1590.33 336.236L1588.67 335.122L1506.34 458.02L1508 459.133ZM1589.5 334.679H1506.28V336.679H1589.5V334.679ZM1507.28 335.679V319.273H1505.28V335.679H1507.28ZM1506.28 320.273H1611.58V318.273H1506.28V320.273ZM1610.58 319.273V332.696H1612.58V319.273H1610.58ZM1610.75 332.139L1528.42 455.037L1530.08 456.15L1612.41 333.253L1610.75 332.139ZM1529.25 456.594H1612.47V454.594H1529.25V456.594ZM1611.47 455.594V472H1613.47V455.594H1611.47ZM1612.47 471H1507.17V473H1612.47V471ZM1695.96 472V473H1696.67L1696.9 472.335L1695.96 472ZM1676.57 472L1675.63 471.655L1675.14 473H1676.57V472ZM1732.65 319.273V318.273H1731.95L1731.71 318.928L1732.65 319.273ZM1751.74 319.273L1752.68 318.928L1752.44 318.273H1751.74V319.273ZM1807.82 472V473H1809.25L1808.76 471.655L1807.82 472ZM1788.43 472L1787.49 472.335L1787.72 473H1788.43V472ZM1742.79 343.435L1743.73 343.1L1743.5 342.435H1742.79V343.435ZM1741.6 343.435V342.435H1740.89L1740.66 343.1L1741.6 343.435ZM1703.12 412.341V411.341H1702.12V412.341H1703.12ZM1781.27 412.341H1782.27V411.341H1781.27V412.341ZM1781.27 428.747V429.747H1782.27V428.747H1781.27ZM1703.12 428.747H1702.12V429.747H1703.12V428.747ZM1695.96 471H1676.57V473H1695.96V471ZM1677.51 472.345L1733.59 319.617L1731.71 318.928L1675.63 471.655L1677.51 472.345ZM1732.65 320.273H1751.74V318.273H1732.65V320.273ZM1750.8 319.617L1806.88 472.345L1808.76 471.655L1752.68 318.928L1750.8 319.617ZM1807.82 471H1788.43V473H1807.82V471ZM1789.37 471.665L1743.73 343.1L1741.85 343.769L1787.49 472.335L1789.37 471.665ZM1742.79 342.435H1741.6V344.435H1742.79V342.435ZM1740.66 343.1L1695.02 471.665L1696.9 472.335L1742.54 343.769L1740.66 343.1ZM1703.12 413.341H1781.27V411.341H1703.12V413.341ZM1780.27 412.341V428.747H1782.27V412.341H1780.27ZM1781.27 427.747H1703.12V429.747H1781.27V427.747ZM1704.12 428.747V412.341H1702.12V428.747H1704.12ZM1877.81 472H1876.81V473H1877.81V472ZM1877.81 319.273V318.273H1876.81V319.273H1877.81ZM1958.8 325.388L1958.33 326.27L1958.33 326.273L1958.8 325.388ZM1975.8 342.018L1974.91 342.48L1975.8 342.018ZM1975.8 390.043L1974.91 389.576L1975.8 390.043ZM1958.87 406.45L1959.33 407.338L1959.33 407.336L1958.87 406.45ZM1887.95 412.341H1886.95V413.341H1887.95V412.341ZM1887.95 395.636V394.636H1886.95V395.636H1887.95ZM1948.8 392.057L1948.37 391.154L1948.37 391.155L1948.8 392.057ZM1959.69 381.915L1958.8 381.456L1958.8 381.459L1959.69 381.915ZM1948.73 339.482L1948.28 340.375L1948.28 340.378L1948.73 339.482ZM1896.3 335.679V334.679H1895.3V335.679H1896.3ZM1896.3 472V473H1897.3V472H1896.3ZM1949.7 403.392L1950.57 402.912L1950.29 402.392H1949.7V403.392ZM1987.28 472V473H1988.97L1988.16 471.52L1987.28 472ZM1965.81 472L1964.93 472.475L1965.21 473H1965.81V472ZM1928.82 403.392V402.392H1927.14L1927.94 403.867L1928.82 403.392ZM1878.81 472V319.273H1876.81V472H1878.81ZM1877.81 320.273H1929.41V318.273H1877.81V320.273ZM1929.41 320.273C1941.24 320.273 1950.86 322.294 1958.33 326.27L1959.27 324.505C1951.42 320.328 1941.45 318.273 1929.41 318.273V320.273ZM1958.33 326.273C1965.82 330.214 1971.34 335.617 1974.91 342.48L1976.69 341.556C1972.9 334.3 1967.08 328.616 1959.26 324.503L1958.33 326.273ZM1974.91 342.48C1978.51 349.379 1980.32 357.246 1980.32 366.105H1982.32C1982.32 356.967 1980.45 348.776 1976.69 341.556L1974.91 342.48ZM1980.32 366.105C1980.32 374.964 1978.51 382.779 1974.91 389.576L1976.68 390.511C1980.45 383.387 1982.32 375.243 1982.32 366.105H1980.32ZM1974.91 389.576C1971.34 396.341 1965.85 401.671 1958.41 405.563L1959.33 407.336C1967.1 403.274 1972.9 397.666 1976.68 390.511L1974.91 389.576ZM1958.41 405.561C1950.99 409.393 1941.44 411.341 1929.71 411.341V413.341C1941.65 413.341 1951.54 411.361 1959.33 407.338L1958.41 405.561ZM1929.71 411.341H1887.95V413.341H1929.71V411.341ZM1888.95 412.341V395.636H1886.95V412.341H1888.95ZM1887.95 396.636H1929.12V394.636H1887.95V396.636ZM1929.12 396.636C1937.35 396.636 1944.08 395.433 1949.24 392.958L1948.37 391.155C1943.58 393.453 1937.18 394.636 1929.12 394.636V396.636ZM1949.23 392.96C1954.43 390.492 1958.23 386.966 1960.58 382.37L1958.8 381.459C1956.68 385.613 1953.22 388.849 1948.37 391.154L1949.23 392.96ZM1960.58 382.374C1962.95 377.779 1964.12 372.344 1964.12 366.105H1962.12C1962.12 372.096 1961 377.202 1958.8 381.456L1960.58 382.374ZM1964.12 366.105C1964.12 359.865 1962.95 354.362 1960.59 349.625L1958.8 350.519C1961 354.929 1962.12 360.115 1962.12 366.105H1964.12ZM1960.59 349.625C1958.19 344.837 1954.37 341.159 1949.17 338.586L1948.28 340.378C1953.13 342.777 1956.62 346.159 1958.8 350.519L1960.59 349.625ZM1949.18 338.59C1943.97 335.958 1937.16 334.679 1928.82 334.679V336.679C1936.98 336.679 1943.45 337.935 1948.28 340.375L1949.18 338.59ZM1928.82 334.679H1896.3V336.679H1928.82V334.679ZM1895.3 335.679V472H1897.3V335.679H1895.3ZM1896.3 471H1877.81V473H1896.3V471ZM1948.82 403.872L1986.41 472.48L1988.16 471.52L1950.57 402.912L1948.82 403.872ZM1987.28 471H1965.81V473H1987.28V471ZM1966.69 471.525L1929.7 402.917L1927.94 403.867L1964.93 472.475L1966.69 471.525ZM1928.82 404.392H1949.7V402.392H1928.82V404.392ZM1023.02 626.455L1022.02 626.572L1022.13 627.455H1023.02V626.455ZM1012.13 608.855L1011.58 609.691L1012.13 608.855ZM970.964 605.872L970.568 604.954L970.565 604.955L970.964 605.872ZM959.182 614.896L958.378 614.301L958.373 614.307L959.182 614.896ZM957.914 638.461L957.08 639.012L957.085 639.021L957.091 639.029L957.914 638.461ZM965.521 645.695L964.988 646.541L964.998 646.547L965.521 645.695ZM975.215 650.393L974.87 651.331L974.882 651.336L975.215 650.393ZM984.537 653.301L984.797 652.336L984.791 652.334L984.537 653.301ZM1000.05 657.477L999.788 658.443L999.794 658.444L1000.05 657.477ZM1013.32 661.803L1012.97 662.738L1012.97 662.739L1013.32 661.803ZM1027.42 669.335L1026.84 670.15L1026.85 670.157L1027.42 669.335ZM1038.6 681.415L1039.46 680.904L1038.6 681.415ZM1036.51 721.909L1035.68 721.365L1035.67 721.369L1036.51 721.909ZM1017.72 737.793L1017.29 736.89L1017.29 736.891L1017.72 737.793ZM959.406 738.39L959 739.304L959.002 739.305L959.406 738.39ZM940.613 723.624L939.8 724.207L939.803 724.211L940.613 723.624ZM932.932 701.625V700.625H931.858L931.934 701.696L932.932 701.625ZM952.023 701.625L953.019 701.539L952.94 700.625H952.023V701.625ZM957.839 715.943L957.094 716.61L957.104 716.62L957.839 715.943ZM970.815 724.295L970.483 725.239L970.494 725.242L970.815 724.295ZM1006.83 723.55L1007.21 724.476L1007.22 724.473L1006.83 723.55ZM1020.18 713.855L1020.97 714.478L1020.97 714.473L1020.18 713.855ZM1020.85 686.859L1021.6 686.194L1020.85 686.859ZM1009.67 679.104L1009.27 680.022L1009.67 679.104ZM994.679 673.884L994.404 674.845L994.411 674.847L994.679 673.884ZM975.886 668.514L975.61 669.475L975.612 669.476L975.886 668.514ZM947.548 653.823L946.874 654.561L947.548 653.823ZM944.043 606.469L943.235 605.88L943.234 605.881L944.043 606.469ZM962.836 591.554L963.246 592.466L963.248 592.465L962.836 591.554ZM1015.56 591.479L1015.14 592.388L1015.15 592.39L1015.56 591.479ZM1033.76 605.798L1032.95 606.391L1032.95 606.395L1033.76 605.798ZM1040.91 626.455V627.455H1041.95L1041.91 626.422L1040.91 626.455ZM1024.01 626.337C1023.08 618.487 1019.29 612.357 1012.68 608.019L1011.58 609.691C1017.7 613.705 1021.16 619.309 1022.02 626.572L1024.01 626.337ZM1012.68 608.019C1006.12 603.715 998.113 601.591 988.713 601.591V603.591C997.808 603.591 1005.41 605.643 1011.58 609.691L1012.68 608.019ZM988.713 601.591C981.845 601.591 975.789 602.702 970.568 604.954L971.361 606.79C976.282 604.667 982.058 603.591 988.713 603.591V601.591ZM970.565 604.955C965.408 607.202 961.331 610.312 958.378 614.301L959.986 615.491C962.7 611.823 966.479 608.917 971.364 606.789L970.565 604.955ZM958.373 614.307C955.461 618.312 954.006 622.869 954.006 627.946H956.006C956.006 623.279 957.335 619.136 959.991 615.484L958.373 614.307ZM954.006 627.946C954.006 632.187 955.016 635.891 957.08 639.012L958.748 637.91C956.934 635.165 956.006 631.859 956.006 627.946H954.006ZM957.091 639.029C959.16 642.028 961.796 644.533 964.988 646.541L966.053 644.848C963.081 642.979 960.646 640.661 958.737 637.893L957.091 639.029ZM964.998 646.547C968.136 648.471 971.427 650.066 974.87 651.331L975.56 649.454C972.242 648.234 969.07 646.697 966.043 644.842L964.998 646.547ZM974.882 651.336C978.283 652.536 981.417 653.514 984.282 654.268L984.791 652.334C981.989 651.597 978.908 650.636 975.548 649.45L974.882 651.336ZM984.277 654.267L999.788 658.443L1000.31 656.512L984.797 652.336L984.277 654.267ZM999.794 658.444C1003.73 659.478 1008.12 660.908 1012.97 662.738L1013.68 660.867C1008.78 659.018 1004.32 657.565 1000.3 656.51L999.794 658.444ZM1012.97 662.739C1017.81 664.547 1022.43 667.016 1026.84 670.149L1028 668.52C1023.45 665.29 1018.68 662.737 1013.67 660.866L1012.97 662.739ZM1026.85 670.157C1031.25 673.204 1034.88 677.123 1037.74 681.927L1039.46 680.904C1036.46 675.864 1032.63 671.729 1027.99 668.512L1026.85 670.157ZM1037.74 681.927C1040.56 686.66 1042 692.514 1042 699.537H1044C1044 692.242 1042.51 686.014 1039.46 680.904L1037.74 681.927ZM1042 699.537C1042 707.604 1039.89 714.871 1035.68 721.365L1037.35 722.454C1041.79 715.623 1044 707.975 1044 699.537H1042ZM1035.67 721.369C1031.51 727.851 1025.4 733.03 1017.29 736.89L1018.15 738.696C1026.55 734.701 1032.97 729.291 1037.36 722.449L1035.67 721.369ZM1017.29 736.891C1009.26 740.738 999.443 742.685 987.818 742.685V744.685C999.659 744.685 1009.78 742.703 1018.15 738.695L1017.29 736.891ZM987.818 742.685C976.986 742.685 967.659 740.937 959.809 737.475L959.002 739.305C967.161 742.903 976.775 744.685 987.818 744.685V742.685ZM959.811 737.476C951.999 734.009 945.881 729.193 941.423 723.038L939.803 724.211C944.492 730.684 950.903 735.711 959 739.304L959.811 737.476ZM941.426 723.042C937.018 716.89 934.514 709.737 933.929 701.554L931.934 701.696C932.543 710.218 935.16 717.731 939.8 724.207L941.426 723.042ZM932.932 702.625H952.023V700.625H932.932V702.625ZM951.026 701.711C951.539 707.662 953.549 712.648 957.094 716.61L958.585 715.276C955.368 711.682 953.5 707.122 953.019 701.539L951.026 701.711ZM957.104 716.62C960.655 720.48 965.123 723.35 970.483 725.239L971.148 723.352C966.067 721.562 961.885 718.864 958.575 715.266L957.104 716.62ZM970.494 725.242C975.876 727.07 981.653 727.98 987.818 727.98V725.98C981.852 725.98 976.294 725.1 971.137 723.349L970.494 725.242ZM987.818 727.98C994.986 727.98 1001.46 726.819 1007.21 724.476L1006.46 722.624C1000.98 724.854 994.769 725.98 987.818 725.98V727.98ZM1007.22 724.473C1012.97 722.082 1017.56 718.756 1020.97 714.478L1019.4 713.233C1016.24 717.208 1011.94 720.345 1006.45 722.626L1007.22 724.473ZM1020.97 714.473C1024.4 710.112 1026.11 705.019 1026.11 699.239H1024.11C1024.11 704.594 1022.53 709.246 1019.4 713.237L1020.97 714.473ZM1026.11 699.239C1026.11 693.972 1024.63 689.593 1021.6 686.194L1020.11 687.524C1022.75 690.489 1024.11 694.364 1024.11 699.239H1026.11ZM1021.6 686.194C1018.65 682.885 1014.8 680.221 1010.06 678.185L1009.27 680.022C1013.79 681.964 1017.39 684.47 1020.11 687.524L1021.6 686.194ZM1010.06 678.185C1005.39 676.177 1000.35 674.422 994.947 672.92L994.411 674.847C999.742 676.328 1004.7 678.053 1009.27 680.022L1010.06 678.185ZM994.954 672.922L976.161 667.553L975.612 669.476L994.404 674.845L994.954 672.922ZM976.163 667.553C964.334 664.152 955.039 659.317 948.223 653.085L946.874 654.561C953.978 661.056 963.575 666.015 975.61 669.475L976.163 667.553ZM948.223 653.085C941.49 646.929 938.108 638.88 938.108 628.841H936.108C936.108 639.384 939.686 647.99 946.874 654.561L948.223 653.085ZM938.108 628.841C938.108 620.482 940.364 613.234 944.852 607.057L943.234 605.881C938.476 612.43 936.108 620.098 936.108 628.841H938.108ZM944.852 607.058C949.414 600.797 955.535 595.931 963.246 592.466L962.426 590.642C954.426 594.237 948.019 599.314 943.235 605.88L944.852 607.058ZM963.248 592.465C971.009 588.951 979.69 587.185 989.31 587.185V585.185C979.441 585.185 970.473 586.998 962.423 590.643L963.248 592.465ZM989.31 587.185C999.033 587.185 1007.64 588.928 1015.14 592.388L1015.98 590.571C1008.17 586.972 999.274 585.185 989.31 585.185V587.185ZM1015.15 592.39C1022.67 595.808 1028.59 600.478 1032.95 606.391L1034.56 605.204C1029.97 598.986 1023.77 594.111 1015.97 590.569L1015.15 592.39ZM1032.95 606.395C1037.35 612.294 1039.67 618.981 1039.92 626.487L1041.91 626.422C1041.66 618.516 1039.21 611.432 1034.56 605.2L1032.95 606.395ZM1040.91 625.455H1023.02V627.455H1040.91V625.455ZM1119.61 588.273V587.273H1118.61V588.273H1119.61ZM1141.68 588.273L1142.61 587.894L1142.36 587.273H1141.68V588.273ZM1193.59 715.048L1192.66 715.427L1192.92 716.048H1193.59V715.048ZM1195.38 715.048V716.048H1196.05L1196.3 715.427L1195.38 715.048ZM1247.28 588.273V587.273H1246.61L1246.36 587.894L1247.28 588.273ZM1269.35 588.273H1270.35V587.273H1269.35V588.273ZM1269.35 741V742H1270.35V741H1269.35ZM1252.05 741H1251.05V742H1252.05V741ZM1252.05 624.963H1253.05V623.963H1252.05V624.963ZM1250.56 624.963V623.963H1249.89L1249.64 624.583L1250.56 624.963ZM1202.83 741V742H1203.5L1203.76 741.38L1202.83 741ZM1186.13 741L1185.21 741.38L1185.46 742H1186.13V741ZM1138.4 624.963L1139.33 624.583L1139.07 623.963H1138.4V624.963ZM1136.91 624.963V623.963H1135.91V624.963H1136.91ZM1136.91 741V742H1137.91V741H1136.91ZM1119.61 741H1118.61V742H1119.61V741ZM1119.61 589.273H1141.68V587.273H1119.61V589.273ZM1140.76 588.652L1192.66 715.427L1194.51 714.669L1142.61 587.894L1140.76 588.652ZM1193.59 716.048H1195.38V714.048H1193.59V716.048ZM1196.3 715.427L1248.21 588.652L1246.36 587.894L1194.45 714.669L1196.3 715.427ZM1247.28 589.273H1269.35V587.273H1247.28V589.273ZM1268.35 588.273V741H1270.35V588.273H1268.35ZM1269.35 740H1252.05V742H1269.35V740ZM1253.05 741V624.963H1251.05V741H1253.05ZM1252.05 623.963H1250.56V625.963H1252.05V623.963ZM1249.64 624.583L1201.91 740.62L1203.76 741.38L1251.49 625.343L1249.64 624.583ZM1202.83 740H1186.13V742H1202.83V740ZM1187.06 740.62L1139.33 624.583L1137.48 625.343L1185.21 741.38L1187.06 740.62ZM1138.4 623.963H1136.91V625.963H1138.4V623.963ZM1135.91 624.963V741H1137.91V624.963H1135.91ZM1136.91 740H1119.61V742H1136.91V740ZM1120.61 741V588.273H1118.61V741H1120.61ZM1358.9 741V742H1359.61L1359.84 741.335L1358.9 741ZM1339.51 741L1338.57 740.655L1338.08 742H1339.51V741ZM1395.59 588.273V587.273H1394.89L1394.65 587.928L1395.59 588.273ZM1414.68 588.273L1415.62 587.928L1415.38 587.273H1414.68V588.273ZM1470.76 741V742H1472.19L1471.7 740.655L1470.76 741ZM1451.37 741L1450.43 741.335L1450.67 742H1451.37V741ZM1405.73 612.435L1406.68 612.1L1406.44 611.435H1405.73V612.435ZM1404.54 612.435V611.435H1403.83L1403.6 612.1L1404.54 612.435ZM1366.06 681.341V680.341H1365.06V681.341H1366.06ZM1444.21 681.341H1445.21V680.341H1444.21V681.341ZM1444.21 697.747V698.747H1445.21V697.747H1444.21ZM1366.06 697.747H1365.06V698.747H1366.06V697.747ZM1358.9 740H1339.51V742H1358.9V740ZM1340.45 741.345L1396.53 588.617L1394.65 587.928L1338.57 740.655L1340.45 741.345ZM1395.59 589.273H1414.68V587.273H1395.59V589.273ZM1413.74 588.617L1469.82 741.345L1471.7 740.655L1415.62 587.928L1413.74 588.617ZM1470.76 740H1451.37V742H1470.76V740ZM1452.31 740.665L1406.68 612.1L1404.79 612.769L1450.43 741.335L1452.31 740.665ZM1405.73 611.435H1404.54V613.435H1405.73V611.435ZM1403.6 612.1L1357.96 740.665L1359.84 741.335L1405.48 612.769L1403.6 612.1ZM1366.06 682.341H1444.21V680.341H1366.06V682.341ZM1443.21 681.341V697.747H1445.21V681.341H1443.21ZM1444.21 696.747H1366.06V698.747H1444.21V696.747ZM1367.06 697.747V681.341H1365.06V697.747H1367.06ZM1540.75 741H1539.75V742H1540.75V741ZM1540.75 588.273V587.273H1539.75V588.273H1540.75ZM1621.74 594.388L1621.27 595.27L1621.27 595.273L1621.74 594.388ZM1638.74 611.018L1637.85 611.48L1638.74 611.018ZM1638.74 659.043L1637.86 658.576L1638.74 659.043ZM1621.81 675.45L1622.27 676.338L1622.28 676.336L1621.81 675.45ZM1550.89 681.341H1549.89V682.341H1550.89V681.341ZM1550.89 664.636V663.636H1549.89V664.636H1550.89ZM1611.74 661.057L1611.32 660.154L1611.31 660.155L1611.74 661.057ZM1622.63 650.915L1621.74 650.456L1621.74 650.459L1622.63 650.915ZM1611.67 608.482L1611.22 609.375L1611.23 609.378L1611.67 608.482ZM1559.24 604.679V603.679H1558.24V604.679H1559.24ZM1559.24 741V742H1560.24V741H1559.24ZM1612.64 672.392L1613.52 671.912L1613.23 671.392H1612.64V672.392ZM1650.22 741V742H1651.91L1651.1 740.52L1650.22 741ZM1628.75 741L1627.87 741.475L1628.15 742H1628.75V741ZM1591.76 672.392V671.392H1590.08L1590.88 672.867L1591.76 672.392ZM1541.75 741V588.273H1539.75V741H1541.75ZM1540.75 589.273H1592.36V587.273H1540.75V589.273ZM1592.36 589.273C1604.18 589.273 1613.8 591.294 1621.27 595.27L1622.21 593.505C1614.36 589.328 1604.39 587.273 1592.36 587.273V589.273ZM1621.27 595.273C1628.76 599.214 1634.28 604.617 1637.85 611.48L1639.63 610.556C1635.85 603.3 1630.02 597.616 1622.2 593.503L1621.27 595.273ZM1637.85 611.48C1641.45 618.379 1643.26 626.246 1643.26 635.105H1645.26C1645.26 625.967 1643.39 617.776 1639.63 610.556L1637.85 611.48ZM1643.26 635.105C1643.26 643.964 1641.45 651.779 1637.86 658.576L1639.62 659.511C1643.39 652.387 1645.26 644.243 1645.26 635.105H1643.26ZM1637.86 658.576C1634.28 665.341 1628.79 670.671 1621.35 674.563L1622.28 676.336C1630.04 672.274 1635.84 666.666 1639.62 659.511L1637.86 658.576ZM1621.35 674.561C1613.93 678.393 1604.38 680.341 1592.65 680.341V682.341C1604.59 682.341 1614.48 680.361 1622.27 676.338L1621.35 674.561ZM1592.65 680.341H1550.89V682.341H1592.65V680.341ZM1551.89 681.341V664.636H1549.89V681.341H1551.89ZM1550.89 665.636H1592.06V663.636H1550.89V665.636ZM1592.06 665.636C1600.29 665.636 1607.02 664.433 1612.18 661.958L1611.31 660.155C1606.52 662.453 1600.13 663.636 1592.06 663.636V665.636ZM1612.17 661.96C1617.37 659.492 1621.17 655.966 1623.52 651.37L1621.74 650.459C1619.62 654.613 1616.17 657.849 1611.32 660.154L1612.17 661.96ZM1623.52 651.374C1625.9 646.779 1627.06 641.344 1627.06 635.105H1625.06C1625.06 641.096 1623.94 646.202 1621.74 650.456L1623.52 651.374ZM1627.06 635.105C1627.06 628.865 1625.9 623.362 1623.53 618.625L1621.74 619.519C1623.94 623.929 1625.06 629.115 1625.06 635.105H1627.06ZM1623.53 618.625C1621.13 613.837 1617.31 610.159 1612.11 607.586L1611.23 609.378C1616.07 611.777 1619.56 615.159 1621.74 619.519L1623.53 618.625ZM1612.12 607.59C1606.91 604.958 1600.1 603.679 1591.76 603.679V605.679C1599.92 605.679 1606.39 606.935 1611.22 609.375L1612.12 607.59ZM1591.76 603.679H1559.24V605.679H1591.76V603.679ZM1558.24 604.679V741H1560.24V604.679H1558.24ZM1559.24 740H1540.75V742H1559.24V740ZM1611.76 672.872L1649.35 741.48L1651.1 740.52L1613.52 671.912L1611.76 672.872ZM1650.22 740H1628.75V742H1650.22V740ZM1629.63 740.525L1592.64 671.917L1590.88 672.867L1627.87 741.475L1629.63 740.525ZM1591.76 673.392H1612.64V671.392H1591.76V673.392ZM1712.92 604.679H1711.92V605.679H1712.92V604.679ZM1712.92 588.273V587.273H1711.92V588.273H1712.92ZM1827.47 588.273H1828.47V587.273H1827.47V588.273ZM1827.47 604.679V605.679H1828.47V604.679H1827.47ZM1779.44 604.679V603.679H1778.44V604.679H1779.44ZM1779.44 741V742H1780.44V741H1779.44ZM1760.95 741H1759.95V742H1760.95V741ZM1760.95 604.679H1761.95V603.679H1760.95V604.679ZM1713.92 604.679V588.273H1711.92V604.679H1713.92ZM1712.92 589.273H1827.47V587.273H1712.92V589.273ZM1826.47 588.273V604.679H1828.47V588.273H1826.47ZM1827.47 603.679H1779.44V605.679H1827.47V603.679ZM1778.44 604.679V741H1780.44V604.679H1778.44ZM1779.44 740H1760.95V742H1779.44V740ZM1761.95 741V604.679H1759.95V741H1761.95ZM1760.95 603.679H1712.92V605.679H1760.95V603.679Z" fill="#383838" mask="url(#path-65-outside-1_0_1)"/>
</svg>
